<svg width="958" height="955" viewBox="0 0 958 955" fill="none" xmlns="http://www.w3.org/2000/svg">
<path d="M583.064 416.671C649.086 530.972 696.662 641.329 720.258 727.286C732.064 770.294 737.804 806.969 736.96 834.877C736.109 863.043 728.624 880.948 715.547 888.495C702.47 896.041 683.214 893.568 658.385 880.222C633.782 866.998 604.876 843.692 573.515 811.969C510.838 748.565 439.01 652.203 372.987 537.902C306.965 423.601 259.389 313.244 235.793 227.287C223.987 184.279 218.248 147.604 219.091 119.696C219.943 91.53 227.428 73.6247 240.505 66.0783C253.581 58.5319 272.838 61.0053 297.667 74.3513C322.269 87.5753 351.176 110.881 382.536 142.604C445.213 206.008 517.042 302.37 583.064 416.671Z" stroke="#333333" stroke-width="8"/>
<path d="M583.079 538.283C517.08 652.597 445.273 748.968 382.613 812.376C351.261 844.102 322.362 867.409 297.765 880.633C272.942 893.979 253.689 896.45 240.614 888.901C227.539 881.352 220.053 863.443 219.199 835.273C218.353 807.359 224.087 770.679 235.887 727.664C259.47 641.695 307.027 531.323 373.026 417.009C439.026 302.695 510.832 206.323 573.492 142.915C604.844 111.189 633.743 87.8823 658.34 74.6585C683.163 61.3127 702.416 58.8408 715.491 66.3898C728.567 73.9389 736.052 91.848 736.906 120.019C737.752 147.932 732.018 184.613 720.218 227.627C696.635 313.597 649.078 423.968 583.079 538.283Z" stroke="#333333" stroke-width="8"/>
<path d="M479.001 356.126C611.034 356.126 730.429 370.089 816.696 392.591C859.859 403.85 894.502 417.188 918.259 431.839C942.238 446.627 954.001 462.021 954.001 477.068C954.001 492.114 942.238 507.508 918.259 522.296C894.502 536.947 859.859 550.286 816.696 561.545C730.429 584.046 611.034 598.01 479.001 598.01C346.968 598.01 227.573 584.046 141.306 561.545C98.1433 550.286 63.5 536.947 39.7428 522.296C15.7636 507.508 4.00098 492.114 4.00098 477.068C4.00098 462.021 15.7636 446.627 39.7428 431.839C63.5 417.188 98.1433 403.85 141.306 392.591C227.573 370.089 346.968 356.126 479.001 356.126Z" stroke="#333333" stroke-width="8"/>
<path d="M478.001 570.526C529.086 570.526 570.501 529.132 570.501 478.067C570.501 427.002 529.086 385.608 478.001 385.608C426.916 385.608 385.501 427.002 385.501 478.067C385.501 529.132 426.916 570.526 478.001 570.526Z" fill="#FFFEE6" stroke="#FD367E" stroke-width="7"/>
<ellipse cx="70.501" cy="387.11" rx="59.5" ry="58.9727" fill="#FD367E"/>
<path d="M904.001 465.076C929.404 465.076 950.001 444.491 950.001 419.095C950.001 393.698 929.404 373.114 904.001 373.114C878.598 373.114 858.001 393.698 858.001 419.095C858.001 444.491 878.598 465.076 904.001 465.076Z" fill="#FFFEE6" stroke="#FD367E" stroke-width="8"/>
<ellipse cx="608.501" cy="109.238" rx="61.5" ry="60.9718" fill="#FD367E"/>
<mask id="mask0_817_1567" style="mask-type:alpha" maskUnits="userSpaceOnUse" x="387" y="386" width="183" height="183">
<ellipse cx="478.268" cy="477.334" rx="91.2672" ry="91.225" fill="#F4FFFE"/>
</mask>
<g mask="url(#mask0_817_1567)">
<path d="M470.351 579.793C482.601 579.793 492.343 577.635 499.576 573.318C506.809 568.885 510.426 562.818 510.426 555.118C510.426 550.102 509.376 545.843 507.276 542.343C505.176 538.727 500.976 535.46 494.676 532.543C488.376 529.51 478.809 526.36 465.976 523.093C453.843 519.943 443.168 516.21 433.951 511.893C424.851 507.577 417.793 501.977 412.776 495.093C407.759 488.21 405.251 479.343 405.251 468.493C405.251 457.877 408.226 448.602 414.176 440.668C420.126 432.735 428.643 426.552 439.726 422.118C450.926 417.685 464.051 415.468 479.101 415.468C494.618 415.468 508.151 417.51 519.701 421.593C531.251 425.677 541.109 430.752 549.276 436.818L532.826 461.493C525.593 456.71 517.659 452.802 509.026 449.768C500.509 446.735 490.884 445.218 480.151 445.218C467.668 445.218 458.684 447.085 453.201 450.818C447.834 454.552 445.151 459.51 445.151 465.693C445.151 470.243 446.493 474.093 449.176 477.243C451.976 480.277 456.759 483.135 463.526 485.818C470.293 488.385 479.859 491.418 492.226 494.918C504.243 498.185 514.684 502.035 523.551 506.468C532.534 510.902 539.476 516.793 544.376 524.143C549.393 531.377 551.901 540.827 551.901 552.493C551.901 565.793 548.051 576.702 540.351 585.218C532.768 593.618 522.734 599.86 510.251 603.943C497.884 607.91 484.584 609.893 470.351 609.893C453.201 609.893 438.384 607.443 425.901 602.543C413.418 597.527 402.918 591.285 394.401 583.818L415.226 560.018C422.459 565.852 430.743 570.635 440.076 574.368C449.409 577.985 459.501 579.793 470.351 579.793Z" fill="#FD367E"/>
</g>
<ellipse cx="721.501" cy="736.948" rx="39.5" ry="38.9823" fill="#FD367E"/>
<mask id="mask1_817_1567" style="mask-type:alpha" maskUnits="userSpaceOnUse" x="11" y="327" width="119" height="120">
<ellipse cx="70.4087" cy="387.012" rx="59.3892" ry="59.3617" fill="#F4FFFE"/>
</mask>
<g mask="url(#mask1_817_1567)">
<path d="M61.9795 431.69C62.6329 441.77 64.7795 450.03 68.4195 456.47C72.0595 462.817 76.8195 467.483 82.6995 470.47C88.6729 473.457 95.2062 474.95 102.3 474.95C109.58 474.95 116.3 473.83 122.46 471.59C128.62 469.35 134.826 466.177 141.08 462.07L154.66 480.83C147.753 486.43 139.68 490.91 130.44 494.27C121.2 497.63 111.306 499.31 100.76 499.31C85.4529 499.31 72.4795 496.043 61.8395 489.51C51.2929 482.977 43.2662 473.877 37.7595 462.21C32.2529 450.543 29.4995 437.057 29.4995 421.75C29.4995 406.91 32.2062 393.657 37.6195 381.99C43.0329 370.23 50.7795 360.943 60.8595 354.13C70.9395 347.223 82.9795 343.77 96.9795 343.77C110.14 343.77 121.433 346.757 130.86 352.73C140.38 358.703 147.706 367.197 152.84 378.21C158.066 389.13 160.68 402.29 160.68 417.69C160.68 420.21 160.586 422.73 160.4 425.25C160.306 427.677 160.166 429.823 159.98 431.69H61.9795ZM97.2595 367.01C87.4595 367.01 79.3395 370.51 72.8995 377.51C66.5529 384.51 62.8662 395.43 61.8395 410.27H130.3C130.02 396.363 127.033 385.677 121.34 378.21C115.74 370.743 107.713 367.01 97.2595 367.01Z" fill="#FFFEE6"/>
</g>
<mask id="mask2_817_1567" style="mask-type:alpha" maskUnits="userSpaceOnUse" x="859" y="375" width="90" height="90">
<ellipse cx="903.543" cy="419.636" rx="44.5419" ry="44.5217" fill="#F4FFFE"/>
</mask>
<g mask="url(#mask2_817_1567)">
<path d="M935.001 350.648C941.468 350.648 947.234 351.215 952.301 352.348C957.434 353.415 962.168 354.881 966.501 356.748L959.901 372.248C956.368 370.781 952.668 369.715 948.801 369.048C945.001 368.381 941.134 368.048 937.201 368.048C930.268 368.048 925.134 369.381 921.801 372.048C918.468 374.648 916.801 378.781 916.801 384.448V403.148H952.101L949.701 419.648H916.801V501.148H894.501V419.648H870.501V403.148H894.501V384.248C894.501 377.581 896.168 371.748 899.501 366.748C902.901 361.681 907.634 357.748 913.701 354.948C919.768 352.081 926.868 350.648 935.001 350.648Z" fill="#FD367E"/>
</g>
<mask id="mask3_817_1567" style="mask-type:alpha" maskUnits="userSpaceOnUse" x="547" y="48" width="123" height="123">
<ellipse cx="608.183" cy="109.409" rx="61.1359" ry="61.1076" fill="#F4FFFE"/>
</mask>
<g mask="url(#mask3_817_1567)">
<path d="M694.501 19.8141L670.626 192.314H636.751L619.751 64.6891L602.126 192.314H567.501L545.501 19.8141H573.501L587.126 164.314L605.376 39.8141H635.251L652.501 164.314L668.626 19.8141H694.501Z" fill="#FFFEE6"/>
</g>
</svg>
