<svg width="370" height="415" viewBox="0 0 370 415" fill="none" xmlns="http://www.w3.org/2000/svg">
<path d="M203.558 147.388L145.61 247.757L217.043 288.999L274.991 188.631L248.769 173.491L334.768 26.6247L315.779 15.6616L230.684 163.05L203.558 147.388Z" fill="#333333" stroke="#333333" stroke-width="7"/>
<path fill-rule="evenodd" clip-rule="evenodd" d="M366 218.851H4V249.803H26.0195C27.1054 323.335 72.6906 411 185.405 411C298.12 411 343.705 323.335 344.791 249.803H366V218.851Z" fill="#FF3434"/>
<path d="M4 218.851V215.351H0.5V218.851H4ZM366 218.851H369.5V215.351H366V218.851ZM4 249.803H0.5V253.303H4V249.803ZM26.0195 249.803L29.5191 249.751L29.4682 246.303H26.0195V249.803ZM344.791 249.803V246.303H341.342L341.292 249.751L344.791 249.803ZM366 249.803V253.303H369.5V249.803H366ZM4 222.351H366V215.351H4V222.351ZM7.5 249.803V218.851H0.5V249.803H7.5ZM26.0195 246.303H4V253.303H26.0195V246.303ZM22.5199 249.854C23.0722 287.26 34.9332 328.371 61.15 360.201C87.4544 392.138 128.031 414.5 185.405 414.5V407.5C130.065 407.5 91.4916 386.029 66.5532 355.751C41.5272 325.366 30.0526 285.878 29.5191 249.751L22.5199 249.854ZM185.405 414.5C242.78 414.5 283.356 392.138 309.661 360.201C335.877 328.371 347.738 287.26 348.291 249.854L341.292 249.751C340.758 285.878 329.284 325.366 304.258 355.751C279.319 386.029 240.746 407.5 185.405 407.5V414.5ZM366 246.303H344.791V253.303H366V246.303ZM362.5 218.851V249.803H369.5V218.851H362.5Z" fill="#333333"/>
</svg>
