<svg width="1440" height="1004" viewBox="0 0 1440 1004" fill="none" xmlns="http://www.w3.org/2000/svg">
<rect width="1440" height="689" fill="#FFFEE6"/>
<rect y="151" width="2" height="1440" transform="rotate(-90 0 151)" fill="#333333"/>
<rect y="227" width="2" height="1440" transform="rotate(-90 0 227)" fill="#333333"/>
<rect y="75" width="2" height="1440" transform="rotate(-90 0 75)" fill="#333333"/>
<rect y="303" width="2" height="1440" transform="rotate(-90 0 303)" fill="#333333"/>
<rect y="531" width="2" height="1440" transform="rotate(-90 0 531)" fill="#333333"/>
<rect y="607" width="2" height="1440" transform="rotate(-90 0 607)" fill="#333333"/>
<rect y="455" width="2" height="1440" transform="rotate(-90 0 455)" fill="#333333"/>
<rect y="379" width="2" height="1440" transform="rotate(-90 0 379)" fill="#333333"/>
<rect y="683" width="2" height="1440" transform="rotate(-90 0 683)" fill="#333333"/>
<rect x="529" width="2" height="681" fill="#333333"/>
<rect x="225" width="2" height="681" fill="#333333"/>
<rect x="833" width="2" height="681" fill="#333333"/>
<rect x="1365" width="2" height="681" fill="#333333"/>
<rect x="73" width="2" height="681" fill="#333333"/>
<rect x="681" width="2" height="681" fill="#333333"/>
<rect x="1213" width="2" height="681" fill="#333333"/>
<rect x="377" width="2" height="681" fill="#333333"/>
<rect x="985" width="2" height="681" fill="#333333"/>
<rect x="605" width="2" height="681" fill="#333333"/>
<rect x="301" width="2" height="681" fill="#333333"/>
<rect x="909" width="2" height="681" fill="#333333"/>
<rect x="149" width="2" height="681" fill="#333333"/>
<rect x="757" width="2" height="681" fill="#333333"/>
<rect x="1289" width="2" height="681" fill="#333333"/>
<rect x="453" width="2" height="681" fill="#333333"/>
<rect x="1061" width="2" height="681" fill="#333333"/>
<rect x="1137" width="2" height="681" fill="#333333"/>
<rect y="683" width="1440" height="321" fill="#333333"/>
<rect x="935" y="360" width="30" height="505" transform="rotate(-90 935 360)" fill="#333333"/>
<path d="M316.419 339.087V294.628H830.184V341.205H787.912L787.912 800.08H362.484L362.484 339.087H316.419Z" fill="#FFFEE6"/>
<path d="M358 400C358 400 456.963 400 562.994 400C669.025 400 728.294 400 793 400C793 482.26 793 857 793 857H358V400Z" fill="#3ABA62"/>
<rect x="357" y="334" width="14" height="523" fill="#333333"/>
<rect x="311" y="284" width="13.0067" height="58.5302" fill="#333333"/>
<rect width="13.0067" height="58.5302" transform="matrix(-1 0 0 1 842.107 284)" fill="#333333"/>
<rect x="311" y="342.53" width="13.0067" height="59.614" transform="rotate(-90 311 342.53)" fill="#333333"/>
<rect width="13.0067" height="59.614" transform="matrix(0 -1 -1 0 842.107 342.53)" fill="#333333"/>
<rect x="311" y="297.007" width="13.0067" height="531.107" transform="rotate(-90 311 297.007)" fill="#333333"/>
<rect x="782" y="334" width="14" height="523" fill="#333333"/>
<rect x="358.439" y="751.168" width="2.06255" height="35.0634" transform="rotate(-90 358.439 751.168)" fill="#333333"/>
<rect x="358.439" y="804.794" width="2.06255" height="35.0634" transform="rotate(-90 358.439 804.794)" fill="#333333"/>
<rect x="358.439" y="643.915" width="2.06255" height="35.0634" transform="rotate(-90 358.439 643.915)" fill="#333333"/>
<rect x="358.439" y="536.663" width="2.06255" height="35.0634" transform="rotate(-90 358.439 536.663)" fill="#333333"/>
<rect x="358.439" y="697.542" width="2.06255" height="35.0634" transform="rotate(-90 358.439 697.542)" fill="#333333"/>
<rect x="358.439" y="590.289" width="2.06255" height="35.0634" transform="rotate(-90 358.439 590.289)" fill="#333333"/>
<rect x="358.439" y="483.036" width="2.06255" height="35.0634" transform="rotate(-90 358.439 483.036)" fill="#333333"/>
<rect x="358.439" y="429.41" width="2.06255" height="35.0634" transform="rotate(-90 358.439 429.41)" fill="#333333"/>
<path d="M399.393 488.838L397.283 488.188L402.573 476.558H396.253V474.798H404.843V476.408L399.393 488.838Z" fill="#333333"/>
<path d="M404.843 424.462C404.843 425.122 404.65 425.696 404.263 426.182C403.877 426.662 403.303 427.112 402.543 427.532C403.457 427.932 404.16 428.449 404.653 429.082C405.147 429.709 405.393 430.432 405.393 431.252C405.393 431.992 405.2 432.666 404.813 433.272C404.427 433.872 403.867 434.352 403.133 434.712C402.407 435.066 401.523 435.242 400.483 435.242C399.45 435.242 398.573 435.066 397.853 434.712C397.133 434.359 396.59 433.886 396.223 433.292C395.857 432.692 395.673 432.029 395.673 431.302C395.673 430.476 395.917 429.772 396.403 429.192C396.89 428.606 397.54 428.129 398.353 427.762C397.633 427.376 397.097 426.942 396.743 426.462C396.397 425.976 396.223 425.349 396.223 424.582C396.223 423.962 396.347 423.426 396.593 422.972C396.84 422.512 397.17 422.129 397.583 421.822C397.997 421.509 398.46 421.276 398.973 421.122C399.487 420.969 400.01 420.892 400.543 420.892C401.11 420.892 401.65 420.969 402.163 421.122C402.677 421.269 403.133 421.492 403.533 421.792C403.94 422.086 404.26 422.456 404.493 422.902C404.727 423.349 404.843 423.869 404.843 424.462ZM403.103 431.262C403.103 430.702 402.97 430.256 402.703 429.922C402.443 429.589 402.067 429.309 401.573 429.082C401.08 428.856 400.49 428.622 399.803 428.382C399.47 428.556 399.163 428.772 398.883 429.032C398.603 429.286 398.38 429.592 398.213 429.952C398.047 430.312 397.963 430.739 397.963 431.232C397.963 431.939 398.177 432.502 398.603 432.922C399.03 433.336 399.667 433.542 400.513 433.542C401.367 433.542 402.01 433.322 402.443 432.882C402.883 432.442 403.103 431.902 403.103 431.262ZM398.393 424.592C398.393 425.046 398.497 425.412 398.703 425.692C398.91 425.972 399.21 426.209 399.603 426.402C399.997 426.589 400.473 426.779 401.033 426.972C401.6 426.619 402.013 426.266 402.273 425.912C402.54 425.552 402.673 425.106 402.673 424.572C402.673 423.952 402.49 423.456 402.123 423.082C401.757 422.709 401.23 422.522 400.543 422.522C399.863 422.522 399.333 422.702 398.953 423.062C398.58 423.422 398.393 423.932 398.393 424.592Z" fill="#333333"/>
<path d="M401.353 528.145C401.92 528.145 402.437 528.221 402.903 528.375C403.377 528.521 403.807 528.725 404.193 528.985L403.323 530.425C403.03 530.231 402.717 530.088 402.383 529.995C402.05 529.895 401.71 529.845 401.363 529.845C400.703 529.845 400.133 530.061 399.653 530.495C399.18 530.928 398.817 531.545 398.563 532.345C398.31 533.145 398.183 534.098 398.183 535.205L398.203 535.975C398.203 537.621 398.39 538.838 398.763 539.625C399.143 540.405 399.79 540.795 400.703 540.795C401.47 540.795 402.04 540.508 402.413 539.935C402.793 539.355 402.983 538.598 402.983 537.665C402.983 536.951 402.897 536.388 402.723 535.975C402.55 535.561 402.307 535.265 401.993 535.085C401.68 534.905 401.31 534.815 400.883 534.815C400.277 534.815 399.727 534.991 399.233 535.345C398.74 535.698 398.333 536.165 398.013 536.745L397.973 535.065C398.42 534.385 398.93 533.895 399.503 533.595C400.077 533.288 400.693 533.135 401.353 533.135C402.067 533.135 402.717 533.301 403.303 533.635C403.897 533.961 404.37 534.455 404.723 535.115C405.077 535.768 405.253 536.585 405.253 537.565C405.253 538.545 405.053 539.405 404.653 540.145C404.26 540.885 403.72 541.461 403.033 541.875C402.347 542.288 401.567 542.495 400.693 542.495C399.827 542.495 399.087 542.331 398.473 542.005C397.867 541.678 397.373 541.215 396.993 540.615C396.613 540.015 396.333 539.308 396.153 538.495C395.98 537.675 395.893 536.778 395.893 535.805C395.893 534.265 396.11 532.921 396.543 531.775C396.983 530.628 397.61 529.738 398.423 529.105C399.237 528.465 400.213 528.145 401.353 528.145Z" fill="#333333"/>
<path d="M404.483 582.051L404.193 583.731H398.893V587.571C399.287 587.364 399.667 587.224 400.033 587.151C400.407 587.071 400.78 587.031 401.153 587.031C401.887 587.031 402.54 587.204 403.113 587.551C403.687 587.898 404.137 588.398 404.463 589.051C404.797 589.704 404.963 590.494 404.963 591.421C404.963 592.341 404.757 593.158 404.343 593.871C403.937 594.578 403.363 595.131 402.623 595.531C401.883 595.924 401.013 596.121 400.013 596.121C399.113 596.121 398.313 595.961 397.613 595.641C396.92 595.314 396.31 594.871 395.783 594.311L397.123 593.051C397.51 593.478 397.933 593.801 398.393 594.021C398.86 594.234 399.37 594.341 399.923 594.341C400.763 594.341 401.423 594.088 401.903 593.581C402.39 593.068 402.633 592.344 402.633 591.411C402.633 590.731 402.533 590.194 402.333 589.801C402.14 589.401 401.873 589.114 401.533 588.941C401.193 588.768 400.81 588.681 400.383 588.681C400.037 588.681 399.71 588.718 399.403 588.791C399.103 588.864 398.77 588.981 398.403 589.141H396.753V582.051H404.483Z" fill="#333333"/>
<path d="M399.733 635.398L401.623 636.148L398.103 644.558H405.293V646.298H395.763V644.738L399.733 635.398ZM403.653 640.868V649.478H401.503L401.483 644.878L401.773 640.868H403.653Z" fill="#333333"/>
<path d="M399.933 689.024C400.847 689.024 401.633 689.184 402.293 689.504C402.953 689.824 403.46 690.247 403.813 690.774C404.167 691.3 404.343 691.88 404.343 692.514C404.343 693.08 404.223 693.587 403.983 694.034C403.743 694.48 403.417 694.85 403.003 695.144C402.59 695.437 402.123 695.644 401.603 695.764C402.183 695.824 402.713 695.984 403.193 696.244C403.673 696.504 404.057 696.874 404.343 697.354C404.637 697.834 404.783 698.437 404.783 699.164C404.783 699.95 404.577 700.664 404.163 701.304C403.757 701.937 403.177 702.44 402.423 702.814C401.677 703.187 400.797 703.374 399.783 703.374C398.917 703.374 398.09 703.214 397.303 702.894C396.523 702.574 395.86 702.09 395.313 701.444L396.683 700.244C397.077 700.704 397.537 701.044 398.063 701.264C398.59 701.484 399.13 701.594 399.683 701.594C400.537 701.594 401.213 701.374 401.713 700.934C402.213 700.487 402.463 699.87 402.463 699.084C402.463 698.484 402.35 698.01 402.123 697.664C401.903 697.31 401.593 697.057 401.193 696.904C400.793 696.75 400.33 696.674 399.803 696.674H398.613L398.873 695.024H399.713C400.147 695.024 400.547 694.947 400.913 694.794C401.28 694.634 401.573 694.39 401.793 694.064C402.02 693.737 402.133 693.33 402.133 692.844C402.133 692.17 401.903 691.654 401.443 691.294C400.99 690.934 400.427 690.754 399.753 690.754C399.18 690.754 398.667 690.86 398.213 691.074C397.767 691.28 397.327 691.587 396.893 691.994L395.703 690.724C396.31 690.144 396.967 689.717 397.673 689.444C398.38 689.164 399.133 689.024 399.933 689.024Z" fill="#333333"/>
<path d="M399.973 742.65C400.913 742.65 401.707 742.827 402.353 743.18C403.007 743.527 403.503 743.993 403.843 744.58C404.19 745.167 404.363 745.823 404.363 746.55C404.363 747.15 404.257 747.74 404.043 748.32C403.837 748.9 403.5 749.51 403.033 750.15C402.573 750.783 401.963 751.49 401.203 752.27C400.443 753.043 399.513 753.93 398.413 754.93H404.683L404.423 756.73H395.843V755.03C396.837 754.083 397.687 753.25 398.393 752.53C399.1 751.803 399.69 751.167 400.163 750.62C400.637 750.067 401.01 749.57 401.283 749.13C401.557 748.683 401.75 748.267 401.863 747.88C401.983 747.487 402.043 747.09 402.043 746.69C402.043 745.997 401.847 745.45 401.453 745.05C401.06 744.65 400.513 744.45 399.813 744.45C399.187 744.45 398.667 744.563 398.253 744.79C397.84 745.017 397.43 745.383 397.023 745.89L395.563 744.78C396.103 744.093 396.723 743.567 397.423 743.2C398.123 742.833 398.973 742.65 399.973 742.65Z" fill="#333333"/>
<path d="M402.373 796.556V809.956H400.153V798.856L397.113 800.726L396.153 799.156L400.393 796.556H402.373ZM405.133 808.596V810.356H396.783V808.596H405.133Z" fill="#333333"/>
<path d="M1252 628.505C1252 740.884 1160.68 832.009 1048 832.009C935.321 832.009 844 740.884 844 628.505C844 516.126 935.321 425 1048 425C1160.68 425 1252 516.126 1252 628.505Z" fill="#FFFEE6" stroke="#333333" stroke-width="12"/>
<path d="M939.5 460.5C879 493.5 834.346 559.545 844.757 650.302C855.168 741.058 1239.44 692.073 1239.44 692.073C1239.44 692.073 1300.5 558 1159 460.5H939.5Z" fill="#FF3434"/>
<path d="M1048 828.104C1159.06 828.104 1249.08 737.632 1249.08 626.028H1048H846.915C846.915 737.632 936.944 828.104 1048 828.104Z" fill="#FF3434"/>
<path d="M1252 628.505C1252 740.884 1160.68 832.009 1048 832.009C935.321 832.009 844 740.884 844 628.505C844 516.126 935.321 425 1048 425C1160.68 425 1252 516.126 1252 628.505Z" stroke="#333333" stroke-width="12"/>
<mask id="path-60-inside-1_715_6" fill="white">
<path d="M1001 254H1096V434H1001V254Z"/>
</mask>
<path d="M1001 254H1096V434H1001V254Z" fill="#FFFEE6"/>
<path d="M1001 254V242H989V254H1001ZM1096 254H1108V242H1096V254ZM1001 266H1096V242H1001V266ZM1084 254V434H1108V254H1084ZM1013 434V254H989V434H1013Z" fill="#333333" mask="url(#path-60-inside-1_715_6)"/>
<path d="M1013 254H1084V435H1013V254Z" fill="#FFFEE6"/>
<rect x="986" y="254" width="121" height="20" fill="#333333"/>
<rect x="976" y="321" width="139" height="49" fill="#333333"/>
<line x1="3" y1="-3" x2="163.82" y2="-3" transform="matrix(-0.866025 -0.5 -0.5 0.866025 1252.47 192)" stroke="#333333" stroke-width="6" stroke-linecap="round"/>
<line x1="801.986" y1="187" x2="961.014" y2="187" stroke="#333333" stroke-width="6" stroke-linecap="round"/>
<circle cx="1252" cy="188" r="29" fill="#3ABA62"/>
<line x1="3" y1="-3" x2="163.82" y2="-3" transform="matrix(-0.866025 -0.5 -0.5 0.866025 789.471 192)" stroke="#333333" stroke-width="6" stroke-linecap="round"/>
<circle cx="644" cy="112" r="29" fill="#FD367E"/>
<line x1="959.098" y1="187.902" x2="1098.37" y2="107.492" stroke="#333333" stroke-width="6" stroke-linecap="round"/>
<circle cx="1100" cy="112" r="29" fill="#333333"/>
<circle cx="948" cy="188" r="29" fill="#FF3434"/>
<circle cx="796" cy="188" r="29" fill="#333333"/>
<line x1="196.863" y1="187.902" x2="336.137" y2="107.492" stroke="#333333" stroke-width="6" stroke-linecap="round"/>
<line x1="3" y1="-3" x2="163.82" y2="-3" transform="matrix(-0.866025 -0.5 -0.5 0.866025 492.471 192)" stroke="#333333" stroke-width="6" stroke-linecap="round"/>
<circle cx="188" cy="188" r="29" fill="#3ABA62"/>
<circle cx="492" cy="188" r="29" fill="#FF3434"/>
<circle cx="340" cy="112" r="29" fill="#333333"/>
<path d="M100.914 458.409H97.4141V461.909V750.595C97.4141 764.126 108.383 775.095 121.914 775.095H127.64C141.171 775.095 152.14 764.126 152.14 750.595V461.909V458.409H148.64H100.914Z" fill="#FFFEE6" stroke="#333333" stroke-width="7"/>
<path d="M100 564H151C151 567.981 151.013 698.775 151.018 750.675C151.02 762.274 141.617 771.594 130.018 771.594H121.061C109.466 771.594 100.066 762.282 100.061 750.687C100.044 700.484 99.9999 576.36 100 564Z" fill="#FF3434"/>
<path d="M100.914 458.409H97.4141V461.909V750.595C97.4141 764.126 108.383 775.095 121.914 775.095H127.64C141.171 775.095 152.14 764.126 152.14 750.595V461.909V458.409H148.64H100.914Z" stroke="#333333" stroke-width="7"/>
<rect x="87.8691" y="442.5" width="73.8157" height="22.9085" fill="#FFFEE6" stroke="#333333" stroke-width="7"/>
<rect x="100" y="745" width="2" height="18" transform="rotate(-90 100 745)" fill="#333333"/>
<rect x="100" y="691" width="2" height="18" transform="rotate(-90 100 691)" fill="#333333"/>
<rect x="100" y="637" width="2" height="18" transform="rotate(-90 100 637)" fill="#333333"/>
<rect x="100" y="718" width="2" height="18" transform="rotate(-90 100 718)" fill="#333333"/>
<rect x="100" y="664" width="2" height="18" transform="rotate(-90 100 664)" fill="#333333"/>
<rect x="100" y="610" width="2" height="18" transform="rotate(-90 100 610)" fill="#333333"/>
<rect x="100" y="583" width="2" height="18" transform="rotate(-90 100 583)" fill="#333333"/>
<path d="M200.332 458.409H196.832V461.909V750.595C196.832 764.126 207.801 775.095 221.332 775.095H227.058C240.588 775.095 251.558 764.126 251.558 750.595V461.909V458.409H248.058H200.332Z" fill="#FFFEE6" stroke="#333333" stroke-width="7"/>
<path d="M197.999 564H249.999C249.999 567.98 250.28 698.703 250.392 750.632C250.417 762.248 241.008 771.594 229.392 771.594H220.324C208.789 771.594 199.415 762.376 199.326 750.842C198.942 700.741 197.999 576.373 197.999 564Z" fill="#FD367E"/>
<path d="M200.332 458.409H196.832V461.909V750.595C196.832 764.126 207.801 775.095 221.332 775.095H227.058C240.588 775.095 251.558 764.126 251.558 750.595V461.909V458.409H248.058H200.332Z" stroke="#333333" stroke-width="7"/>
<rect x="187.287" y="442.5" width="73.8157" height="22.9085" fill="#FFFEE6" stroke="#333333" stroke-width="7"/>
<rect x="200" y="745" width="2" height="18" transform="rotate(-90 200 745)" fill="#333333"/>
<rect x="200" y="691" width="2" height="18" transform="rotate(-90 200 691)" fill="#333333"/>
<rect x="200" y="637" width="2" height="18" transform="rotate(-90 200 637)" fill="#333333"/>
<rect x="200" y="718" width="2" height="18" transform="rotate(-90 200 718)" fill="#333333"/>
<rect x="200" y="664" width="2" height="18" transform="rotate(-90 200 664)" fill="#333333"/>
<rect x="200" y="610" width="2" height="18" transform="rotate(-90 200 610)" fill="#333333"/>
<rect x="200" y="583" width="2" height="18" transform="rotate(-90 200 583)" fill="#333333"/>
<rect x="56" y="488.534" width="236" height="9" fill="#3ABA62"/>
<rect x="56" y="788" width="236" height="29" fill="#3ABA62"/>
<rect x="68" y="788" width="295" height="8" transform="rotate(-90 68 788)" fill="#3ABA62"/>
<rect x="273" y="788" width="295" height="9" transform="rotate(-90 273 788)" fill="#3ABA62"/>
<path d="M1330.5 437V433H1326.5H1259.58H1249.26L1256.89 439.956L1288.5 468.766V809.234L1250.31 844.044L1242.67 851H1253H1366H1376.33L1368.69 844.044L1330.5 809.234V437Z" fill="#FFFEE6" stroke="#333333" stroke-width="8"/>
<path d="M1366 847L1326.5 811.073V610H1292.5V811.073L1253 847H1366Z" fill="#FD367E"/>
<rect x="1290" y="789" width="2" height="15" transform="rotate(-90 1290 789)" fill="#333333"/>
<rect x="1290" y="735" width="2" height="15" transform="rotate(-90 1290 735)" fill="#333333"/>
<rect x="1290" y="573" width="2" height="15" transform="rotate(-90 1290 573)" fill="#333333"/>
<rect x="1290" y="681" width="2" height="15" transform="rotate(-90 1290 681)" fill="#333333"/>
<rect x="1290" y="519" width="2" height="15" transform="rotate(-90 1290 519)" fill="#333333"/>
<rect x="1290" y="762" width="2" height="15" transform="rotate(-90 1290 762)" fill="#333333"/>
<rect x="1290" y="600" width="2" height="15" transform="rotate(-90 1290 600)" fill="#333333"/>
<rect x="1290" y="708" width="2" height="15" transform="rotate(-90 1290 708)" fill="#333333"/>
<rect x="1290" y="546" width="2" height="15" transform="rotate(-90 1290 546)" fill="#333333"/>
<rect x="1290" y="654" width="2" height="15" transform="rotate(-90 1290 654)" fill="#333333"/>
<rect x="1290" y="627" width="2" height="15" transform="rotate(-90 1290 627)" fill="#333333"/>
</svg>
