<svg width="322" height="129" viewBox="0 0 322 129" fill="none" xmlns="http://www.w3.org/2000/svg">
<path d="M36.3017 0.591912C31.5845 2.12411 29.431 4.98422 28.9182 11.113C28.3029 18.9783 30.0463 23.7792 36.917 32.9724C43.2749 41.4506 45.0182 46.0472 43.6851 51.0523C43.1724 52.9931 42.352 53.7082 40.5061 53.7082C38.045 53.7082 37.9424 53.5039 37.9424 46.5579V39.4076H33.3278H28.7131V47.9879C28.7131 55.6489 29.0208 56.9769 31.1743 59.5305C33.4303 62.0842 34.2507 62.3906 40.5061 62.3906C46.9666 62.3906 47.4794 62.1863 50.4533 58.9176C53.4272 55.5468 53.5297 55.2404 53.1195 46.5579C52.8119 38.284 52.5042 37.1604 49.5303 33.0745C37.9424 17.7525 35.5838 11.9302 39.4807 8.76364C42.2494 6.51642 44.0953 9.27438 44.0953 15.6075V21.1234L48.5049 20.8169L52.8119 20.5105L53.1195 15.7096C53.5297 9.58082 51.6838 2.94128 49.3252 1.61338C46.3514 0.0811789 39.7883 -0.429554 36.3017 0.591912Z" fill="#FFFEE6"/>
<path d="M0 31.2359V61.8799H4.61465H9.2293V48.6008V35.3218H12.8185H16.4077V48.6008V61.8799H21.0223H25.637V31.2359V0.591903H21.0223H16.4077V12.8495V25.1071H12.8185H9.2293V12.8495V0.591903H4.61465H0V31.2359Z" fill="#FFFEE6"/>
<path d="M56.401 31.2359V61.8799H67.1686H77.9361V57.2833V52.6867H71.7832H65.6303V44.0042V35.3218H70.245H74.8596V30.8273V26.2307L70.5526 25.9243L66.1431 25.6178L65.8354 17.7525L65.5278 9.88725L71.4756 9.58081L77.4233 9.27437L77.731 4.88206L78.0386 0.591903H67.2711H56.401V31.2359Z" fill="#FFFEE6"/>
<path d="M94.9589 2.83911C94.6513 4.16701 93.0105 16.9353 91.2672 31.2359C89.5239 45.5364 87.9857 58.3047 87.7806 59.6326C87.4729 61.7777 87.7806 61.982 91.6774 61.6756L95.8819 61.3691L96.3946 56.2618C96.9073 51.1545 96.9073 51.1545 100.497 51.1545C104.086 51.1545 104.086 51.1545 104.598 56.2618L105.111 61.3691L109.521 61.6756C113.418 61.982 113.828 61.7777 113.725 59.6326C113.725 58.3047 111.982 44.6171 109.931 29.1929L106.137 1.10261L100.804 0.796174C95.8819 0.489734 95.3691 0.694027 94.9589 2.83911ZM102.035 32.4616C102.753 41.1441 102.65 41.4505 100.599 41.4505C98.1379 41.4505 98.0354 40.9398 99.1634 28.7844C99.9838 19.0804 101.009 20.5105 102.035 32.4616Z" fill="#FFFEE6"/>
<path d="M115.879 31.2359V61.8799H120.494H125.109V48.6008C125.109 37.6711 125.416 35.1175 126.647 34.7089C130.339 33.2788 131.261 36.0368 131.261 49.2137V61.8799H136.184H141.003L140.696 47.1708C140.388 34.1981 140.183 32.2574 138.44 30.7252C136.491 28.9887 136.491 28.7844 138.235 27.5586C139.67 26.5371 140.081 24.2899 140.286 16.016C140.696 6.20997 140.593 5.69923 138.03 3.14557C135.671 0.796196 134.748 0.591903 125.621 0.591903H115.879V31.2359ZM131.056 16.2203C131.364 23.677 130.339 26.1286 127.057 26.1286C125.314 26.1286 125.109 25.2092 125.109 17.344V8.66149L127.98 8.96793C130.646 9.27437 130.749 9.47866 131.056 16.2203Z" fill="#FFFEE6"/>
<path d="M142.541 5.1885V9.7851H146.643H150.745V35.8325V61.8799H154.744C158.026 61.8799 158.846 61.4713 159.256 59.5305C159.461 58.3048 159.564 46.5579 159.461 33.4831L159.154 9.7851H163.153H167.152V5.1885V0.591903H154.847H142.541V5.1885Z" fill="#FFFEE6"/>
<path d="M180.587 27.3543C178.741 42.1656 176.998 55.9554 176.69 57.9983L176.075 61.8799H180.177C183.971 61.8799 184.381 61.6756 184.996 58.7133C185.304 56.9768 185.612 54.4232 185.612 53.0953C185.612 50.9502 186.124 50.6438 189.098 50.6438C192.175 50.6438 192.585 51.0523 193.2 53.8103C193.508 55.5468 193.816 58.1005 193.816 59.4284C193.816 61.6756 194.226 61.8799 198.43 61.8799H203.147L202.532 58.509C202.224 56.7726 200.686 44.4128 198.943 31.2359C194.533 -3.18752 195.764 0.591903 189.303 0.591903H183.971L180.587 27.3543ZM191.149 35.0153L191.867 41.4506H189.201C186.74 41.4506 186.535 41.1441 187.047 38.5905C187.355 37.0583 187.868 32.1552 188.278 27.6608C188.996 19.7955 189.098 19.6933 189.816 24.0856C190.124 26.6393 190.739 31.5423 191.149 35.0153Z" fill="#FFFEE6"/>
<path d="M205.096 31.2358V61.8798H209.198H213.3L213.402 45.2299L213.505 28.6821L217.709 45.0256L222.016 61.3691L225.913 61.6755L229.707 61.9819V31.3379V0.591807H225.606H221.606L221.299 16.6288L220.991 32.768L217.094 16.6288L213.095 0.591807H209.095H205.096V31.2358Z" fill="#FFFEE6"/>
<path d="M233.809 31.2359V61.8799H242.936C251.242 61.8799 252.473 61.5734 255.036 59.4284L257.908 56.9768V31.2359V5.49494L255.036 3.04342C252.473 0.898343 251.242 0.591903 242.936 0.591903H233.809V31.2359ZM248.166 10.7044C249.499 13.2581 249.499 47.5794 248.166 51.0523C247.55 52.6867 246.422 53.7082 245.089 53.7082C243.141 53.7082 243.038 53.0953 243.038 31.2359C243.038 9.58081 243.141 8.76363 245.089 8.76363C246.115 8.76363 247.55 9.68295 248.166 10.7044Z" fill="#FFFEE6"/>
<path d="M58.862 65.8628C54.6576 67.7015 53.3245 70.9702 53.3245 79.244C53.3245 87.7222 54.0423 89.4587 62.4512 100.082C66.8608 105.7 67.1684 106.415 67.1684 112.34C67.1684 118.264 67.0659 118.57 64.6047 118.57C62.1436 118.57 62.041 118.264 61.7334 111.114L61.4257 103.759H56.9136H52.299V111.42C52.299 121.022 54.1448 125.823 58.1442 126.947C62.4512 128.07 69.527 127.764 72.2958 126.231C76.0901 124.189 78.3461 117.345 77.6283 109.786C77.1156 103.453 76.6028 102.533 66.1429 88.0286C62.964 83.7385 62.4512 82.3084 62.7589 78.3247C63.0665 74.4431 63.3741 73.626 65.1175 73.626C66.8608 73.626 67.1684 74.4431 67.4761 79.4483L67.7837 85.3728H72.2958H76.9105V78.3247C76.9105 68.7229 74.6544 65.7607 66.5531 65.3521C63.4767 65.1478 59.9901 65.3521 58.862 65.8628Z" fill="#FFFEE6"/>
<path d="M99.9841 65.8631C98.8561 66.3738 97.0102 67.8039 95.8822 69.0297C93.9338 71.1747 93.8312 72.7069 93.8312 97.2221C93.8312 122.657 93.8312 123.167 96.0873 125.415C99.4714 128.785 106.342 128.377 109.419 124.597L111.675 121.737L112.29 124.495C112.803 126.538 113.623 127.253 115.469 127.253H117.93V108.969C117.93 88.5397 118.34 89.459 110.136 89.459H105.624V94.5663C105.624 98.9586 105.932 99.6737 107.675 99.6737C109.521 99.6737 109.726 100.389 109.726 107.641C109.726 116.732 108.085 120.409 104.906 118.469C103.266 117.447 103.061 115.404 102.753 98.0393C102.445 75.7713 102.65 73.8305 105.932 74.3413C107.88 74.6477 108.188 75.3628 108.496 79.9594L108.803 85.3731H113.418H117.93V79.8572C117.93 71.9919 116.289 68.1103 112.187 66.3738C108.393 64.8416 103.163 64.6374 99.9841 65.8631Z" fill="#FFFEE6"/>
<path d="M163.359 66.9866C159.36 69.336 158.642 71.9918 159.155 81.0829C159.462 87.5181 159.872 88.5396 164.59 94.9748C173.409 106.926 173.409 106.824 173.101 112.953C172.896 117.447 172.383 118.571 170.845 118.877C168.076 119.49 167.153 117.345 167.153 110.092V103.657L162.846 103.964L158.437 104.27V113.157C158.437 121.431 158.642 122.35 161.103 124.802C163.359 127.049 164.795 127.457 169.82 127.56C177.203 127.56 180.177 126.13 182.125 121.635C183.971 117.038 183.971 107.743 182.023 103.147C181.202 101.206 177.716 95.792 174.332 91.2975C168.486 83.6365 168.076 82.7172 168.384 78.3249C168.691 74.4433 168.999 73.6262 170.742 73.6262C172.486 73.6262 172.793 74.4433 173.101 79.4485L173.409 85.373H177.921H182.535V78.7335C182.535 75.1584 182.023 71.0725 181.407 69.6424C179.151 64.8415 169.204 63.4115 163.359 66.9866Z" fill="#FFFEE6"/>
<path d="M191.559 66.4767C190.021 67.2939 188.278 68.9282 187.663 70.0518C187.047 71.1754 186.637 81.7987 186.637 96.8142C186.637 124.802 186.74 125.415 193.713 127.254C198.122 128.378 204.788 127.765 207.044 125.926C209.813 123.577 211.249 118.163 211.249 109.378V100.696H206.634H202.019V108.561C202.019 117.346 201.199 119.491 198.328 118.878C196.482 118.571 196.379 117.244 196.379 96.6099C196.379 75.9763 196.482 74.6484 198.328 74.342C201.096 73.7291 202.019 75.8742 202.019 82.5137V88.4382H206.736H211.454L211.146 79.7557C210.736 71.9926 210.428 70.869 207.967 68.4175C204.583 64.9445 195.969 64.0252 191.559 66.4767Z" fill="#FFFEE6"/>
<path d="M249.601 65.9659C248.371 66.3745 246.422 68.111 245.192 69.6432C243.038 72.4012 242.935 73.1162 243.243 97.325L243.551 122.147L246.422 124.905C248.781 127.356 250.011 127.765 255.139 127.765C262.625 127.765 266.111 125.62 267.547 120.41C268.983 115.405 268.983 77.8149 267.547 72.8098C265.804 66.3745 256.985 63.0037 249.601 65.9659ZM257.907 96.6099V118.571H255.344H252.78L252.472 97.6314C252.37 86.191 252.472 76.0785 252.78 75.3634C253.088 74.6484 254.318 74.1377 255.549 74.342L257.907 74.6484V96.6099Z" fill="#FFFEE6"/>
<path d="M278.417 65.8633C277.289 66.3741 275.444 67.8041 274.316 69.0299C272.367 71.1749 272.265 72.9114 271.957 95.4858C271.649 119.388 271.649 119.695 274.008 123.168C277.084 127.764 282.827 129.194 289.39 127.151C296.773 124.802 297.389 122.555 297.389 96.8137C297.389 72.605 296.773 69.3363 291.338 66.5783C288.057 64.8419 281.801 64.5354 278.417 65.8633ZM287.134 76.078C287.749 77.3037 288.159 85.7819 288.159 96.6095C288.159 107.437 287.749 115.915 287.134 117.141C285.801 119.49 282.417 119.695 281.596 117.447C281.289 116.528 280.981 107.233 280.981 96.6095C280.981 85.9862 281.289 76.6909 281.596 75.7715C282.417 73.5243 285.801 73.7286 287.134 76.078Z" fill="#FFFEE6"/>
<path d="M0 96.6089V127.253H9.63949C24.9191 127.253 25.5344 126.129 25.5344 96.6089C25.5344 67.0886 24.9191 65.9649 9.63949 65.9649H0V96.6089ZM14.8694 96.0982V117.549L12.1006 117.855L9.2293 118.162V96.0982V74.0345L12.1006 74.341L14.8694 74.6474V96.0982Z" fill="#FFFEE6"/>
<path d="M28.713 96.6089V127.253H39.4805H50.2481V122.656V118.06H44.0952H37.9423V109.479V100.899L42.557 100.286L47.1716 99.5712V94.9746V90.4801H42.557H37.9423V82.3084V74.1367H44.0952H50.2481V70.0508V65.9649H39.4805H28.713V96.6089Z" fill="#FFFEE6"/>
<path d="M80.7051 66.5787C79.6796 67.6002 79.8847 124.394 80.9102 126.028C81.4229 126.845 83.2688 127.254 85.7299 127.05L89.7293 126.743V96.6098V66.4766L85.6274 66.1701C83.2688 65.9658 81.1153 66.1701 80.7051 66.5787Z" fill="#FFFEE6"/>
<path d="M122.033 96.6098V127.254H126.134H130.236L130.441 110.808L130.749 94.3626L134.851 110.604L139.055 126.743L142.85 127.05L146.644 127.356V96.712V65.9658H142.542H138.44L138.338 82.0029L138.235 98.142L134.133 82.0029L130.031 65.9658H126.032H122.033V96.6098Z" fill="#FFFEE6"/>
<path d="M214.325 96.6089V127.253H218.94H223.554V113.974V100.695H226.631H229.707V113.974V127.253H234.322H238.936V96.6089V65.9649H234.322H229.707V78.2225V90.4801H226.631H223.554V78.2225V65.9649H218.94H214.325V96.6089Z" fill="#FFFEE6"/>
<path d="M300.465 96.6089V127.253H311.232H322V122.656V118.06H315.847H309.694V92.0123V65.9649H305.08H300.465V96.6089Z" fill="#FFFEE6"/>
</svg>
