<svg width="489" height="908" viewBox="0 0 489 908" fill="none" xmlns="http://www.w3.org/2000/svg">
<path d="M211.076 361.476V14.0659H282.384V361.476L359.923 392.626L420.846 452.155L439.538 496.457H49.7687L104.461 415.469L172.999 373.244L211.076 361.476Z" fill="#FFFEE6"/>
<path d="M425 458.001H68.2726L37.3076 531.76V572.6L46.3076 632.13L78.8461 693.736L110 728.347L176.461 763.649L250.538 780.262L323.923 762.265L378.615 728.347L425 678.508L445.769 623.131L452.692 556.679L445.769 517.223L425 458.001Z" fill="#3ABA62"/>
<line x1="207" y1="4.99927" x2="207" y2="367.947" stroke="#333333" stroke-width="12"/>
<line x1="280" y1="4.99927" x2="280" y2="367.947" stroke="#333333" stroke-width="12"/>
<path fill-rule="evenodd" clip-rule="evenodd" d="M276.188 367.604C374.051 382.615 449 467.159 449 569.204C449 681.851 357.668 773.173 245 773.173C132.332 773.173 41 681.851 41 569.204C41 467.561 115.36 383.28 212.658 367.784V355.64C108.706 371.246 29 460.918 29 569.204C29 688.48 125.706 785.173 245 785.173C364.294 785.173 461 688.48 461 569.204C461 460.518 380.703 370.583 276.188 355.47V367.604Z" fill="#333333"/>
<rect x="191" width="109" height="12.9981" fill="#333333"/>
<rect y="711.897" width="489" height="16.9975" fill="#FFFEE6"/>
<path d="M13.4785 898.87L90.3541 714.682L106.765 720.655L29.8896 904.842L13.4785 898.87Z" fill="#FFFEE6"/>
<path d="M479.287 898.87L402.411 714.682L386 720.655L462.876 904.842L479.287 898.87Z" fill="#FFFEE6"/>
</svg>
