<svg width="530" height="474" viewBox="0 0 530 474" fill="none" xmlns="http://www.w3.org/2000/svg">
<rect width="494" height="32.9854" transform="matrix(-1 0 0 1 494 81.9688)" fill="#333333"/>
<path d="M270.496 14.5949L279.115 32.5639V179.424L115.819 458.974L110.547 468H121H509H519.451L514.182 458.975L350.97 179.424V32.422L358.655 14.3477L362.205 6H353.134H275.906H266.373L270.496 14.5949Z" fill="#FFFEE6" stroke="#333333" stroke-width="12"/>
<path d="M121 462H509L372.98 229.026H257.086L121 462Z" fill="#FD367E"/>
<path d="M341.281 365.125C324.692 381.707 307.604 394.508 293.448 401.831C286.357 405.499 280.131 407.724 275.152 408.429C270.119 409.142 266.866 408.249 265.019 406.403C263.172 404.556 262.278 401.305 262.992 396.275C263.697 391.297 265.923 385.074 269.593 377.986C276.919 363.837 289.726 346.756 306.316 330.174C322.905 313.592 339.993 300.791 354.149 293.468C361.24 289.8 367.465 287.575 372.445 286.87C377.478 286.157 380.73 287.05 382.578 288.896C384.425 290.743 385.319 293.994 384.605 299.024C383.899 304.002 381.673 310.225 378.004 317.313C370.678 331.462 357.871 348.543 341.281 365.125Z" stroke="#333333" stroke-width="5"/>
<path d="M341.401 330.295C357.991 346.877 370.798 363.957 378.124 378.106C381.794 385.195 384.02 391.417 384.725 396.395C385.439 401.426 384.545 404.676 382.698 406.523C380.85 408.369 377.598 409.262 372.565 408.549C367.586 407.844 361.36 405.619 354.269 401.951C340.113 394.628 323.025 381.827 306.436 365.245C289.846 348.663 277.039 331.582 269.713 317.433C266.044 310.345 263.817 304.122 263.112 299.144C262.398 294.114 263.292 290.863 265.139 289.016C266.987 287.17 270.239 286.277 275.272 286.99C280.251 287.695 286.477 289.92 293.568 293.588C307.724 300.911 324.812 313.713 341.401 330.295Z" stroke="#333333" stroke-width="5"/>
<ellipse cx="323.699" cy="347.55" rx="19.9796" ry="19.9708" fill="#FFFEE6"/>
<ellipse cx="265.956" cy="313.973" rx="7.90403" ry="7.90052" fill="#FFFEE6"/>
<ellipse cx="381.004" cy="383.761" rx="7.90403" ry="7.90052" fill="#FFFEE6"/>
<rect width="180" height="60.9729" transform="matrix(-1 0 0 1 405 67.9751)" fill="#333333"/>
</svg>
