<svg width="1389" height="814" viewBox="0 0 1389 814" fill="none" xmlns="http://www.w3.org/2000/svg">
<path d="M306.74 12.4338L306.733 12.4287C306.001 11.869 305.253 11.3249 304.64 10.9023C304.333 10.6907 304.065 10.5135 303.854 10.3815C303.748 10.3154 303.661 10.2639 303.594 10.2264C303.535 10.1936 303.506 10.1797 303.499 10.1767C303.497 10.1759 303.497 10.1758 303.498 10.1763C303.352 10.1176 303.18 10.0451 303.026 9.95866C302.901 9.88857 302.626 9.72406 302.453 9.41416C302.352 9.23457 302.29 9.01419 302.307 8.77113C302.322 8.53783 302.405 8.34839 302.49 8.21159C302.644 7.96419 302.866 7.79185 303.027 7.68082C303.368 7.44388 303.892 7.17892 304.576 6.86258C305.279 6.5375 306.22 6.12773 307.441 5.60278L307.445 5.6009C323.494 -1.21234 342.807 -0.600571 357.21 8.40012L357.211 8.40088C376.229 20.3232 384.474 44.0778 376.952 65.0865L376.951 65.089C374.678 71.3852 371.535 76.0636 367.497 78.9776C363.437 81.9065 358.57 82.9819 353.01 82.2435C344.11 81.0833 337.621 73.0329 334.399 60.1961C333.62 57.1867 333.341 52.2099 333.465 47.3901C333.59 42.5769 334.121 37.7133 335.057 34.9478C337.436 27.8626 341.046 21.717 345.749 16.6091L345.753 16.6047L347.784 14.4253L346.217 13.3776C346.216 13.377 346.215 13.3764 346.214 13.3759C343.574 11.6342 340.146 10.5591 336.833 9.93384C333.531 9.31051 330.423 9.14919 328.489 9.18678C324.563 9.26308 318.113 10.1239 313.445 12.8629C313.443 12.8638 313.442 12.8647 313.44 12.8657L310.617 14.5644L310.04 14.9118L309.501 14.5072L306.74 12.4338ZM304.005 8.21477C304.005 8.21492 304.006 8.2151 304.006 8.21525C303.996 8.20811 303.99 8.20504 303.99 8.20571C303.991 8.20626 303.995 8.20934 304.005 8.21477ZM366.754 34.0795L366.754 34.0795L366.751 34.0714C365.772 31.4038 363.844 28.2425 361.75 25.7513C360.705 24.5083 359.644 23.4632 358.67 22.7382C357.662 21.988 356.887 21.6852 356.387 21.6852C355.823 21.6852 355.139 21.9291 354.371 22.4074C353.616 22.8777 352.865 23.5212 352.188 24.1909C351.514 24.857 350.936 25.5268 350.525 26.0319C350.321 26.2838 350.159 26.4928 350.05 26.6375C349.995 26.7098 349.954 26.766 349.926 26.8032L349.901 26.8374L349.873 26.8823C349.844 26.9275 349.801 26.9948 349.746 27.0821C349.636 27.2566 349.477 27.5108 349.281 27.8278C348.891 28.4622 348.356 29.3462 347.78 30.3449C346.617 32.362 345.329 34.7773 344.697 36.5471C344.074 38.2928 343.61 41.0937 343.302 43.7631C342.997 46.4159 342.859 48.8195 342.859 49.7173C342.859 51.6422 343.55 58.9293 346.012 65.025C347.184 67.9263 349.161 69.9478 351.177 71.2472C353.216 72.5618 355.226 73.094 356.387 73.094C358.815 73.094 363.081 72.0426 366.799 65.7335C371.101 56.0414 370.362 43.6542 366.754 34.0795Z" fill="#FD367E" stroke="#FD367E" stroke-width="2"/>
<path d="M535.443 12.4338L535.436 12.4287C534.704 11.869 533.956 11.3249 533.343 10.9023C533.036 10.6907 532.768 10.5135 532.557 10.3815C532.451 10.3154 532.364 10.2639 532.297 10.2264C532.238 10.1936 532.209 10.1797 532.202 10.1767C532.201 10.1759 532.201 10.1758 532.202 10.1763C532.056 10.1176 531.883 10.0451 531.729 9.95866C531.604 9.88857 531.329 9.72406 531.156 9.41416C531.055 9.23457 530.994 9.01419 531.01 8.77113C531.025 8.53783 531.108 8.34839 531.193 8.21159C531.347 7.96419 531.57 7.79185 531.73 7.68082C532.071 7.44388 532.595 7.17892 533.28 6.86258C533.983 6.5375 534.924 6.12773 536.144 5.60278L536.148 5.6009C552.197 -1.21234 571.51 -0.600571 585.913 8.40012L585.915 8.40088C604.932 20.3232 613.178 44.0778 605.655 65.0865L605.654 65.089C603.381 71.3852 600.239 76.0636 596.2 78.9776C592.141 81.9065 587.273 82.9819 581.713 82.2435C572.813 81.0833 566.324 73.0329 563.102 60.1961C562.323 57.1867 562.044 52.2099 562.169 47.3901C562.293 42.5769 562.824 37.7133 563.76 34.9478C566.139 27.8626 569.749 21.717 574.452 16.6091L574.456 16.6047L576.487 14.4253L574.92 13.3776C574.919 13.377 574.918 13.3764 574.917 13.3759C572.278 11.6342 568.849 10.5591 565.537 9.93384C562.234 9.31051 559.127 9.14919 557.192 9.18678C553.267 9.26308 546.816 10.1239 542.148 12.8629C542.147 12.8638 542.145 12.8647 542.143 12.8657L539.32 14.5644L538.743 14.9118L538.204 14.5072L535.443 12.4338ZM532.708 8.21477C532.709 8.21492 532.709 8.2151 532.709 8.21525C532.699 8.20811 532.693 8.20504 532.694 8.20571C532.694 8.20626 532.699 8.20934 532.708 8.21477ZM595.457 34.0795L595.457 34.0795L595.454 34.0714C594.475 31.4038 592.548 28.2425 590.453 25.7513C589.408 24.5083 588.347 23.4632 587.373 22.7382C586.365 21.988 585.59 21.6852 585.091 21.6852C584.526 21.6852 583.842 21.9291 583.074 22.4074C582.319 22.8777 581.568 23.5212 580.891 24.1909C580.217 24.857 579.639 25.5268 579.229 26.0319C579.024 26.2838 578.862 26.4928 578.753 26.6375C578.698 26.7098 578.657 26.766 578.629 26.8032L578.605 26.8374L578.576 26.8823C578.547 26.9275 578.504 26.9948 578.449 27.0821C578.339 27.2566 578.18 27.5108 577.985 27.8278C577.594 28.4622 577.059 29.3462 576.483 30.3449C575.32 32.362 574.032 34.7773 573.401 36.5471C572.778 38.2928 572.313 41.0937 572.006 43.7631C571.7 46.4159 571.563 48.8195 571.563 49.7173C571.563 51.6422 572.254 58.9293 574.716 65.025C575.888 67.9263 577.864 69.9478 579.88 71.2472C581.92 72.5618 583.929 73.094 585.091 73.094C587.519 73.094 591.784 72.0426 595.502 65.7335C599.805 56.0414 599.065 43.6542 595.457 34.0795Z" fill="#FD367E" stroke="#FD367E" stroke-width="2"/>
<path d="M706.971 12.4328L706.964 12.4277C706.232 11.8681 705.484 11.324 704.871 10.9013C704.564 10.6897 704.296 10.5125 704.085 10.3805C703.979 10.3144 703.892 10.2629 703.825 10.2254C703.766 10.1926 703.737 10.1788 703.73 10.1757C703.729 10.1749 703.729 10.1748 703.73 10.1753C703.584 10.1167 703.411 10.0441 703.257 9.95769C703.132 9.88759 702.857 9.72308 702.684 9.41319C702.583 9.23359 702.522 9.01321 702.538 8.77015C702.553 8.53685 702.636 8.34741 702.722 8.21061C702.875 7.96321 703.098 7.79088 703.258 7.67985C703.599 7.4429 704.123 7.17795 704.808 6.8616C705.511 6.53652 706.452 6.12675 707.672 5.6018L707.676 5.59992C723.725 -1.21332 743.038 -0.601547 757.442 8.39915L757.443 8.3999C776.461 20.3222 784.706 44.0768 777.183 65.0855L777.182 65.088C774.909 71.3842 771.767 76.0626 767.728 78.9766C763.669 81.9055 758.801 82.9809 753.241 82.2425C744.341 81.0823 737.852 73.032 734.63 60.1952C733.851 57.1857 733.572 52.2089 733.697 47.3891C733.821 42.5759 734.352 37.7124 735.288 34.9468C737.667 27.8617 741.277 21.716 745.98 16.6082L745.984 16.6037L748.015 14.4243L746.448 13.3766C746.447 13.376 746.446 13.3755 746.445 13.3749C743.806 11.6332 740.377 10.5581 737.065 9.93286C733.762 9.30953 730.655 9.14822 728.72 9.18581C724.795 9.26211 718.344 10.1229 713.676 12.8619C713.675 12.8628 713.673 12.8638 713.672 12.8647L710.849 14.5634L710.271 14.9108L709.733 14.5063L706.971 12.4328ZM704.236 8.21379C704.237 8.21394 704.237 8.21412 704.237 8.21427C704.227 8.20714 704.221 8.20406 704.222 8.20473C704.222 8.20528 704.227 8.20836 704.236 8.21379ZM766.985 34.0786L766.985 34.0786L766.982 34.0704C766.003 31.4028 764.076 28.2415 761.981 25.7503C760.936 24.5073 759.875 23.4623 758.901 22.7372C757.894 21.987 757.118 21.6843 756.619 21.6843C756.054 21.6843 755.37 21.9281 754.602 22.4065C753.847 22.8768 753.096 23.5202 752.419 24.1899C751.745 24.856 751.167 25.5258 750.757 26.031C750.552 26.2828 750.391 26.4918 750.281 26.6365C750.226 26.7089 750.185 26.765 750.158 26.8022L750.133 26.8364L750.104 26.8813C750.075 26.9265 750.032 26.9938 749.977 27.0811C749.867 27.2556 749.708 27.5098 749.513 27.8268C749.122 28.4612 748.587 29.3453 748.011 30.3439C746.848 32.361 745.56 34.7763 744.929 36.5462C744.306 38.2918 743.841 41.0928 743.534 43.7621C743.228 46.4149 743.091 48.8185 743.091 49.7163C743.091 51.6413 743.782 58.9283 746.244 65.0241C747.416 67.9253 749.392 69.9468 751.408 71.2462C753.448 72.5609 755.457 73.093 756.619 73.093C759.047 73.093 763.312 72.0416 767.03 65.7325C771.333 56.0405 770.593 43.6532 766.985 34.0786Z" fill="#FD367E" stroke="#FD367E" stroke-width="2"/>
<path d="M933.44 12.5995L933.434 12.5944C932.701 12.0348 931.953 11.4907 931.34 11.0681C931.033 10.8564 930.766 10.6792 930.554 10.5472C930.448 10.4811 930.362 10.4297 930.294 10.3922C930.236 10.3594 930.206 10.3455 930.2 10.3424C930.198 10.3417 930.198 10.3416 930.199 10.342C930.053 10.2834 929.88 10.2109 929.726 10.1244C929.602 10.0543 929.327 9.88983 929.153 9.57993C929.053 9.40034 928.991 9.17996 929.007 8.9369C929.023 8.7036 929.106 8.51416 929.191 8.37736C929.345 8.12996 929.567 7.95763 929.727 7.8466C930.069 7.60965 930.593 7.3447 931.277 7.02835C931.98 6.70327 932.921 6.2935 934.141 5.76855L934.146 5.76667C950.194 -1.04657 969.508 -0.434799 983.911 8.5659L983.912 8.56665C1002.93 20.4889 1011.17 44.2436 1003.65 65.2523L1003.65 65.2547C1001.38 71.551 998.236 76.2294 994.197 79.1434C990.138 82.0723 985.271 83.1476 979.71 82.4093C970.81 81.2491 964.322 73.1987 961.099 60.3619C960.32 57.3525 960.042 52.3756 960.166 47.5559C960.29 42.7426 960.822 37.8791 961.758 35.1136C964.137 28.0284 967.747 21.8827 972.449 16.7749L972.453 16.7705L974.484 14.5911L972.917 13.5433C972.916 13.5428 972.915 13.5422 972.915 13.5416C970.275 11.8 966.847 10.7248 963.534 10.0996C960.231 9.47628 957.124 9.31496 955.19 9.35255C951.264 9.42886 944.813 10.2896 940.145 13.0287C940.144 13.0296 940.142 13.0305 940.141 13.0314L937.318 14.7302L936.741 15.0775L936.202 14.673L933.44 12.5995ZM930.706 8.38054C930.706 8.38069 930.706 8.38087 930.707 8.38102C930.696 8.37389 930.691 8.37081 930.691 8.37148C930.691 8.37203 930.696 8.37511 930.706 8.38054ZM993.454 34.2453L993.454 34.2453L993.451 34.2372C992.472 31.5696 990.545 28.4083 988.45 25.9171C987.405 24.6741 986.344 23.629 985.37 22.904C984.363 22.1537 983.588 21.851 983.088 21.851C982.524 21.851 981.84 22.0949 981.072 22.5732C980.316 23.0435 979.565 23.6869 978.888 24.3566C978.215 25.0227 977.637 25.6926 977.226 26.1977C977.021 26.4495 976.86 26.6586 976.75 26.8033C976.696 26.8756 976.654 26.9317 976.627 26.969L976.602 27.0031L976.573 27.048C976.544 27.0933 976.502 27.1606 976.447 27.2478C976.337 27.4223 976.177 27.6766 975.982 27.9936C975.591 28.6279 975.056 29.512 974.48 30.5106C973.318 32.5278 972.03 34.9431 971.398 36.7129C970.775 38.4586 970.31 41.2595 970.003 43.9289C969.697 46.5817 969.56 48.9853 969.56 49.8831C969.56 51.808 970.251 59.0951 972.713 65.1908C973.885 68.092 975.862 70.1135 977.877 71.413C979.917 72.7276 981.927 73.2598 983.088 73.2598C985.516 73.2598 989.782 72.2084 993.5 65.8992C997.802 56.2072 997.062 43.8199 993.454 34.2453Z" fill="#FD367E" stroke="#FD367E" stroke-width="2"/>
<path d="M421.092 12.4338L421.085 12.4287C420.353 11.869 419.605 11.3249 418.992 10.9023C418.685 10.6907 418.417 10.5135 418.206 10.3815C418.1 10.3154 418.013 10.2639 417.946 10.2264C417.887 10.1936 417.858 10.1797 417.851 10.1767C417.85 10.1759 417.849 10.1758 417.851 10.1763C417.704 10.1176 417.532 10.0451 417.378 9.95866C417.253 9.88857 416.978 9.72406 416.805 9.41416C416.704 9.23457 416.643 9.01419 416.659 8.77113C416.674 8.53783 416.757 8.34839 416.842 8.21159C416.996 7.96419 417.219 7.79185 417.379 7.68082C417.72 7.44388 418.244 7.17892 418.928 6.86258C419.632 6.5375 420.573 6.12773 421.793 5.60278L421.797 5.6009C437.846 -1.21234 457.159 -0.600571 471.562 8.40012L471.564 8.40088C490.581 20.3232 498.827 44.0778 491.304 65.0865L491.303 65.089C489.03 71.3852 485.888 76.0636 481.849 78.9776C477.79 81.9065 472.922 82.9819 467.362 82.2435C458.462 81.0833 451.973 73.0329 448.751 60.1961C447.972 57.1867 447.693 52.2099 447.818 47.3901C447.942 42.5769 448.473 37.7133 449.409 34.9478C451.788 27.8626 455.398 21.717 460.101 16.6091L460.105 16.6047L462.136 14.4253L460.569 13.3776C460.568 13.377 460.567 13.3764 460.566 13.3759C457.927 11.6342 454.498 10.5591 451.185 9.93384C447.883 9.31051 444.776 9.14919 442.841 9.18678C438.916 9.26308 432.465 10.1239 427.797 12.8629C427.796 12.8638 427.794 12.8647 427.792 12.8657L424.969 14.5644L424.392 14.9118L423.853 14.5072L421.092 12.4338ZM418.357 8.21477C418.358 8.21492 418.358 8.2151 418.358 8.21525C418.348 8.20811 418.342 8.20504 418.343 8.20571C418.343 8.20626 418.348 8.20934 418.357 8.21477ZM481.106 34.0795L481.106 34.0795L481.103 34.0714C480.124 31.4038 478.197 28.2425 476.102 25.7513C475.057 24.5083 473.996 23.4632 473.022 22.7382C472.014 21.988 471.239 21.6852 470.74 21.6852C470.175 21.6852 469.491 21.9291 468.723 22.4074C467.968 22.8777 467.217 23.5212 466.54 24.1909C465.866 24.857 465.288 25.5268 464.878 26.0319C464.673 26.2838 464.511 26.4928 464.402 26.6375C464.347 26.7098 464.306 26.766 464.278 26.8032L464.253 26.8374L464.225 26.8823C464.196 26.9275 464.153 26.9948 464.098 27.0821C463.988 27.2566 463.829 27.5108 463.634 27.8278C463.243 28.4622 462.708 29.3462 462.132 30.3449C460.969 32.362 459.681 34.7773 459.05 36.5471C458.427 38.2928 457.962 41.0937 457.655 43.7631C457.349 46.4159 457.212 48.8195 457.212 49.7173C457.212 51.6422 457.903 58.9293 460.365 65.025C461.537 67.9263 463.513 69.9478 465.529 71.2472C467.569 72.5618 469.578 73.094 470.74 73.094C473.167 73.094 477.433 72.0426 481.151 65.7335C485.453 56.0414 484.714 43.6542 481.106 34.0795Z" fill="#FD367E" stroke="#FD367E" stroke-width="2"/>
<path d="M649.795 12.4328L649.788 12.4277C649.056 11.8681 648.308 11.324 647.695 10.9013C647.388 10.6897 647.12 10.5125 646.909 10.3805C646.803 10.3144 646.716 10.2629 646.649 10.2254C646.59 10.1926 646.561 10.1788 646.554 10.1757C646.553 10.1749 646.553 10.1748 646.554 10.1753C646.408 10.1167 646.235 10.0441 646.081 9.95769C645.956 9.88759 645.681 9.72308 645.508 9.41319C645.407 9.23359 645.346 9.01321 645.362 8.77015C645.377 8.53685 645.46 8.34741 645.546 8.21061C645.699 7.96321 645.922 7.79088 646.082 7.67985C646.423 7.4429 646.947 7.17795 647.632 6.8616C648.335 6.53652 649.276 6.12675 650.496 5.6018L650.5 5.59992C666.549 -1.21332 685.862 -0.601547 700.265 8.39915L700.267 8.3999C719.285 20.3222 727.53 44.0768 720.007 65.0855L720.006 65.088C717.733 71.3842 714.591 76.0626 710.552 78.9766C706.493 81.9055 701.625 82.9809 696.065 82.2425C687.165 81.0823 680.676 73.032 677.454 60.1952C676.675 57.1857 676.396 52.2089 676.521 47.3891C676.645 42.5759 677.176 37.7124 678.112 34.9468C680.491 27.8617 684.101 21.716 688.804 16.6082L688.808 16.6037L690.839 14.4243L689.272 13.3766C689.271 13.376 689.27 13.3755 689.269 13.3749C686.63 11.6332 683.201 10.5581 679.889 9.93286C676.586 9.30953 673.479 9.14822 671.544 9.18581C667.619 9.26211 661.168 10.1229 656.5 12.8619C656.499 12.8628 656.497 12.8638 656.495 12.8647L653.673 14.5634L653.095 14.9108L652.556 14.5063L649.795 12.4328ZM647.06 8.21379C647.061 8.21394 647.061 8.21412 647.061 8.21427C647.051 8.20714 647.045 8.20406 647.046 8.20473C647.046 8.20528 647.051 8.20836 647.06 8.21379ZM709.809 34.0786L709.809 34.0786L709.806 34.0704C708.827 31.4028 706.9 28.2415 704.805 25.7503C703.76 24.5073 702.699 23.4623 701.725 22.7372C700.717 21.987 699.942 21.6843 699.443 21.6843C698.878 21.6843 698.194 21.9281 697.426 22.4065C696.671 22.8768 695.92 23.5202 695.243 24.1899C694.569 24.856 693.991 25.5258 693.581 26.031C693.376 26.2828 693.215 26.4918 693.105 26.6365C693.05 26.7089 693.009 26.765 692.982 26.8022L692.957 26.8364L692.928 26.8813C692.899 26.9265 692.856 26.9938 692.801 27.0811C692.691 27.2556 692.532 27.5098 692.337 27.8268C691.946 28.4612 691.411 29.3453 690.835 30.3439C689.672 32.361 688.384 34.7763 687.753 36.5462C687.13 38.2918 686.665 41.0928 686.358 43.7621C686.052 46.4149 685.915 48.8185 685.915 49.7163C685.915 51.6413 686.606 58.9283 689.068 65.0241C690.24 67.9253 692.216 69.9468 694.232 71.2462C696.272 72.5609 698.281 73.093 699.443 73.093C701.871 73.093 706.136 72.0416 709.854 65.7325C714.157 56.0405 713.417 43.6532 709.809 34.0786Z" fill="#FD367E" stroke="#FD367E" stroke-width="2"/>
<path d="M876.264 12.5995L876.258 12.5944C875.525 12.0348 874.777 11.4907 874.164 11.0681C873.857 10.8564 873.59 10.6792 873.378 10.5472C873.272 10.4811 873.186 10.4297 873.118 10.3922C873.06 10.3594 873.03 10.3455 873.024 10.3424C873.022 10.3417 873.022 10.3416 873.023 10.342C872.877 10.2834 872.704 10.2109 872.55 10.1244C872.426 10.0543 872.151 9.88983 871.977 9.57993C871.877 9.40034 871.815 9.17996 871.831 8.9369C871.847 8.7036 871.93 8.51416 872.015 8.37736C872.169 8.12996 872.391 7.95763 872.551 7.8466C872.893 7.60965 873.417 7.3447 874.101 7.02835C874.804 6.70327 875.745 6.2935 876.965 5.76855L876.97 5.76667C893.018 -1.04657 912.332 -0.434799 926.735 8.5659L926.736 8.56665C945.754 20.4889 953.999 44.2436 946.476 65.2523L946.475 65.2547C944.202 71.551 941.06 76.2294 937.021 79.1434C932.962 82.0723 928.095 83.1476 922.534 82.4093C913.634 81.2491 907.146 73.1987 903.923 60.3619C903.144 57.3525 902.866 52.3756 902.99 47.5559C903.114 42.7426 903.646 37.8791 904.582 35.1136C906.961 28.0284 910.571 21.8827 915.273 16.7749L915.277 16.7705L917.308 14.5911L915.741 13.5433C915.74 13.5428 915.739 13.5422 915.739 13.5416C913.099 11.8 909.671 10.7248 906.358 10.0996C903.055 9.47628 899.948 9.31496 898.014 9.35255C894.088 9.42886 887.637 10.2896 882.969 13.0287C882.968 13.0296 882.966 13.0305 882.965 13.0314L880.142 14.7302L879.564 15.0775L879.026 14.673L876.264 12.5995ZM873.53 8.38054C873.53 8.38069 873.53 8.38087 873.53 8.38102C873.52 8.37389 873.515 8.37081 873.515 8.37148C873.515 8.37203 873.52 8.37511 873.53 8.38054ZM936.278 34.2453L936.278 34.2453L936.275 34.2372C935.296 31.5696 933.369 28.4083 931.274 25.9171C930.229 24.6741 929.168 23.629 928.194 22.904C927.187 22.1537 926.412 21.851 925.912 21.851C925.348 21.851 924.664 22.0949 923.896 22.5732C923.14 23.0435 922.389 23.6869 921.712 24.3566C921.039 25.0227 920.461 25.6926 920.05 26.1977C919.845 26.4495 919.684 26.6586 919.574 26.8033C919.52 26.8756 919.478 26.9317 919.451 26.969L919.426 27.0031L919.397 27.048C919.368 27.0933 919.326 27.1606 919.271 27.2478C919.161 27.4223 919.001 27.6766 918.806 27.9936C918.415 28.6279 917.88 29.512 917.304 30.5106C916.142 32.5278 914.854 34.9431 914.222 36.7129C913.599 38.4586 913.134 41.2595 912.827 43.9289C912.521 46.5817 912.384 48.9853 912.384 49.8831C912.384 51.808 913.075 59.0951 915.537 65.1908C916.709 68.092 918.686 70.1135 920.701 71.413C922.741 72.7276 924.751 73.2598 925.912 73.2598C928.34 73.2598 932.606 72.2084 936.323 65.8992C940.626 56.2072 939.886 43.8199 936.278 34.2453Z" fill="#FD367E" stroke="#FD367E" stroke-width="2"/>
<path d="M821.322 12.4328L821.315 12.4277C820.583 11.8681 819.835 11.324 819.222 10.9013C818.915 10.6897 818.648 10.5125 818.436 10.3805C818.33 10.3144 818.243 10.2629 818.176 10.2254C818.117 10.1926 818.088 10.1788 818.082 10.1757C818.08 10.1749 818.08 10.1748 818.081 10.1753C817.935 10.1167 817.762 10.0441 817.608 9.95769C817.483 9.88759 817.208 9.72308 817.035 9.41319C816.935 9.23359 816.873 9.01321 816.889 8.77015C816.905 8.53685 816.988 8.34741 817.073 8.21061C817.227 7.96321 817.449 7.79088 817.609 7.67985C817.951 7.4429 818.474 7.17795 819.159 6.8616C819.862 6.53652 820.803 6.12675 822.023 5.6018L822.027 5.59992C838.076 -1.21332 857.39 -0.601547 871.793 8.39915L871.794 8.3999C890.812 20.3222 899.057 44.0768 891.534 65.0855L891.533 65.088C889.26 71.3842 886.118 76.0626 882.079 78.9766C878.02 81.9055 873.153 82.9809 867.592 82.2425C858.692 81.0823 852.203 73.032 848.981 60.1952C848.202 57.1857 847.923 52.2089 848.048 47.3891C848.172 42.5759 848.703 37.7124 849.639 34.9468C852.018 27.8617 855.629 21.716 860.331 16.6082L860.335 16.6037L862.366 14.4243L860.799 13.3766C860.798 13.376 860.797 13.3755 860.796 13.3749C858.157 11.6332 854.728 10.5581 851.416 9.93286C848.113 9.30953 845.006 9.14822 843.071 9.18581C839.146 9.26211 832.695 10.1229 828.027 12.8619C828.026 12.8628 828.024 12.8638 828.023 12.8647L825.2 14.5634L824.622 14.9108L824.084 14.5063L821.322 12.4328ZM818.587 8.21379C818.588 8.21394 818.588 8.21412 818.588 8.21427C818.578 8.20714 818.572 8.20406 818.573 8.20473C818.573 8.20528 818.578 8.20836 818.587 8.21379ZM881.336 34.0786L881.336 34.0786L881.333 34.0704C880.354 31.4028 878.427 28.2415 876.332 25.7503C875.287 24.5073 874.226 23.4623 873.252 22.7372C872.245 21.987 871.469 21.6843 870.97 21.6843C870.406 21.6843 869.721 21.9281 868.953 22.4065C868.198 22.8768 867.447 23.5202 866.77 24.1899C866.096 24.856 865.518 25.5258 865.108 26.031C864.903 26.2828 864.742 26.4918 864.632 26.6365C864.578 26.7089 864.536 26.765 864.509 26.8022L864.484 26.8364L864.455 26.8813C864.426 26.9265 864.384 26.9938 864.329 27.0811C864.218 27.2556 864.059 27.5098 863.864 27.8268C863.473 28.4612 862.938 29.3453 862.362 30.3439C861.2 32.361 859.911 34.7763 859.28 36.5462C858.657 38.2918 858.192 41.0928 857.885 43.7621C857.579 46.4149 857.442 48.8185 857.442 49.7163C857.442 51.6413 858.133 58.9283 860.595 65.0241C861.767 67.9253 863.743 69.9468 865.759 71.2462C867.799 72.5609 869.808 73.093 870.97 73.093C873.398 73.093 877.664 72.0416 881.381 65.7325C885.684 56.0405 884.944 43.6532 881.336 34.0786Z" fill="#FD367E" stroke="#FD367E" stroke-width="2"/>
<path d="M478.267 12.4338L478.26 12.4287C477.528 11.869 476.78 11.3249 476.167 10.9023C475.86 10.6907 475.592 10.5135 475.381 10.3815C475.275 10.3154 475.188 10.2639 475.121 10.2264C475.062 10.1936 475.033 10.1797 475.026 10.1767C475.025 10.1759 475.025 10.1758 475.026 10.1763C474.88 10.1176 474.707 10.0451 474.553 9.95866C474.428 9.88857 474.153 9.72406 473.98 9.41416C473.879 9.23457 473.818 9.01419 473.834 8.77113C473.849 8.53783 473.932 8.34839 474.017 8.21159C474.171 7.96419 474.394 7.79185 474.554 7.68082C474.895 7.44388 475.419 7.17892 476.103 6.86258C476.807 6.5375 477.748 6.12773 478.968 5.60278L478.972 5.6009C495.021 -1.21234 514.334 -0.600571 528.737 8.40012L528.739 8.40088C547.756 20.3232 556.002 44.0778 548.479 65.0865L548.478 65.089C546.205 71.3852 543.063 76.0636 539.024 78.9776C534.965 81.9065 530.097 82.9819 524.537 82.2435C515.637 81.0833 509.148 73.0329 505.926 60.1961C505.147 57.1867 504.868 52.2099 504.993 47.3901C505.117 42.5769 505.648 37.7133 506.584 34.9478C508.963 27.8626 512.573 21.717 517.276 16.6091L517.28 16.6047L519.311 14.4253L517.744 13.3776C517.743 13.377 517.742 13.3764 517.741 13.3759C515.102 11.6342 511.673 10.5591 508.361 9.93384C505.058 9.31051 501.951 9.14919 500.016 9.18678C496.091 9.26308 489.64 10.1239 484.972 12.8629C484.971 12.8638 484.969 12.8647 484.967 12.8657L482.144 14.5644L481.567 14.9118L481.028 14.5072L478.267 12.4338ZM475.532 8.21477C475.533 8.21492 475.533 8.2151 475.533 8.21525C475.523 8.20811 475.517 8.20504 475.518 8.20571C475.518 8.20626 475.523 8.20934 475.532 8.21477ZM538.281 34.0795L538.281 34.0795L538.278 34.0714C537.299 31.4038 535.372 28.2425 533.277 25.7513C532.232 24.5083 531.171 23.4632 530.197 22.7382C529.189 21.988 528.414 21.6852 527.915 21.6852C527.35 21.6852 526.666 21.9291 525.898 22.4074C525.143 22.8777 524.392 23.5212 523.715 24.1909C523.041 24.857 522.463 25.5268 522.053 26.0319C521.848 26.2838 521.686 26.4928 521.577 26.6375C521.522 26.7098 521.481 26.766 521.453 26.8032L521.429 26.8374L521.4 26.8823C521.371 26.9275 521.328 26.9948 521.273 27.0821C521.163 27.2566 521.004 27.5108 520.809 27.8278C520.418 28.4622 519.883 29.3462 519.307 30.3449C518.144 32.362 516.856 34.7773 516.225 36.5471C515.602 38.2928 515.137 41.0937 514.83 43.7631C514.524 46.4159 514.387 48.8195 514.387 49.7173C514.387 51.6422 515.078 58.9293 517.54 65.025C518.712 67.9263 520.688 69.9478 522.704 71.2472C524.744 72.5618 526.753 73.094 527.915 73.094C530.343 73.094 534.608 72.0426 538.326 65.7335C542.629 56.0414 541.889 43.6542 538.281 34.0795Z" fill="#FD367E" stroke="#FD367E" stroke-width="2"/>
<path d="M363.916 12.4338L363.909 12.4287C363.177 11.869 362.429 11.3249 361.816 10.9023C361.509 10.6907 361.241 10.5135 361.03 10.3815C360.924 10.3154 360.837 10.2639 360.77 10.2264C360.711 10.1936 360.682 10.1797 360.675 10.1767C360.674 10.1759 360.673 10.1758 360.675 10.1763C360.528 10.1176 360.356 10.0451 360.202 9.95866C360.077 9.88857 359.802 9.72406 359.629 9.41416C359.528 9.23457 359.467 9.01419 359.483 8.77113C359.498 8.53783 359.581 8.34839 359.666 8.21159C359.82 7.96419 360.043 7.79185 360.203 7.68082C360.544 7.44388 361.068 7.17892 361.752 6.86258C362.456 6.5375 363.397 6.12773 364.617 5.60278L364.621 5.6009C380.67 -1.21234 399.983 -0.600571 414.386 8.40012L414.388 8.40088C433.405 20.3232 441.651 44.0778 434.128 65.0865L434.127 65.089C431.854 71.3852 428.712 76.0636 424.673 78.9776C420.614 81.9065 415.746 82.9819 410.186 82.2435C401.286 81.0833 394.797 73.0329 391.575 60.1961C390.796 57.1867 390.517 52.2099 390.642 47.3901C390.766 42.5769 391.297 37.7133 392.233 34.9478C394.612 27.8626 398.222 21.717 402.925 16.6091L402.929 16.6047L404.96 14.4253L403.393 13.3776C403.392 13.377 403.391 13.3764 403.39 13.3759C400.751 11.6342 397.322 10.5591 394.009 9.93384C390.707 9.31051 387.6 9.14919 385.665 9.18678C381.74 9.26308 375.289 10.1239 370.621 12.8629C370.619 12.8638 370.618 12.8647 370.616 12.8657L367.793 14.5644L367.216 14.9118L366.677 14.5072L363.916 12.4338ZM361.181 8.21477C361.182 8.21492 361.182 8.2151 361.182 8.21525C361.172 8.20811 361.166 8.20504 361.167 8.20571C361.167 8.20626 361.172 8.20934 361.181 8.21477ZM423.93 34.0795L423.93 34.0795L423.927 34.0714C422.948 31.4038 421.021 28.2425 418.926 25.7513C417.881 24.5083 416.82 23.4632 415.846 22.7382C414.838 21.988 414.063 21.6852 413.564 21.6852C412.999 21.6852 412.315 21.9291 411.547 22.4074C410.792 22.8777 410.041 23.5212 409.364 24.1909C408.69 24.857 408.112 25.5268 407.702 26.0319C407.497 26.2838 407.335 26.4928 407.226 26.6375C407.171 26.7098 407.13 26.766 407.102 26.8032L407.077 26.8374L407.049 26.8823C407.02 26.9275 406.977 26.9948 406.922 27.0821C406.812 27.2566 406.653 27.5108 406.458 27.8278C406.067 28.4622 405.532 29.3462 404.956 30.3449C403.793 32.362 402.505 34.7773 401.874 36.5471C401.251 38.2928 400.786 41.0937 400.479 43.7631C400.173 46.4159 400.036 48.8195 400.036 49.7173C400.036 51.6422 400.726 58.9293 403.189 65.025C404.36 67.9263 406.337 69.9478 408.353 71.2472C410.392 72.5618 412.402 73.094 413.564 73.094C415.991 73.094 420.257 72.0426 423.975 65.7335C428.277 56.0414 427.538 43.6542 423.93 34.0795Z" fill="#FD367E" stroke="#FD367E" stroke-width="2"/>
<path d="M592.619 12.4338L592.612 12.4287C591.88 11.869 591.132 11.3249 590.519 10.9023C590.212 10.6907 589.944 10.5135 589.733 10.3815C589.627 10.3154 589.54 10.2639 589.473 10.2264C589.414 10.1936 589.385 10.1797 589.378 10.1767C589.377 10.1759 589.376 10.1758 589.378 10.1763C589.231 10.1176 589.059 10.0451 588.905 9.95866C588.78 9.88857 588.505 9.72406 588.332 9.41416C588.231 9.23457 588.17 9.01419 588.186 8.77113C588.201 8.53783 588.284 8.34839 588.369 8.21159C588.523 7.96419 588.746 7.79185 588.906 7.68082C589.247 7.44388 589.771 7.17892 590.455 6.86258C591.159 6.5375 592.1 6.12773 593.32 5.60278L593.324 5.6009C609.373 -1.21234 628.686 -0.600571 643.089 8.40012L643.091 8.40088C662.108 20.3232 670.354 44.0778 662.831 65.0865L662.83 65.089C660.557 71.3852 657.415 76.0636 653.376 78.9776C649.317 81.9065 644.449 82.9819 638.889 82.2435C629.989 81.0833 623.5 73.0329 620.278 60.1961C619.499 57.1867 619.22 52.2099 619.345 47.3901C619.469 42.5769 620 37.7133 620.936 34.9478C623.315 27.8626 626.925 21.717 631.628 16.6091L631.632 16.6047L633.663 14.4253L632.096 13.3776C632.095 13.377 632.094 13.3764 632.093 13.3759C629.454 11.6342 626.025 10.5591 622.712 9.93384C619.41 9.31051 616.303 9.14919 614.368 9.18678C610.443 9.26308 603.992 10.1239 599.324 12.8629C599.322 12.8638 599.321 12.8647 599.319 12.8657L596.496 14.5644L595.919 14.9118L595.38 14.5072L592.619 12.4338ZM589.884 8.21477C589.885 8.21492 589.885 8.2151 589.885 8.21525C589.875 8.20811 589.869 8.20504 589.87 8.20571C589.87 8.20626 589.875 8.20934 589.884 8.21477ZM652.633 34.0795L652.633 34.0795L652.63 34.0714C651.651 31.4038 649.724 28.2425 647.629 25.7513C646.584 24.5083 645.523 23.4632 644.549 22.7382C643.541 21.988 642.766 21.6852 642.267 21.6852C641.702 21.6852 641.018 21.9291 640.25 22.4074C639.495 22.8777 638.744 23.5212 638.067 24.1909C637.393 24.857 636.815 25.5268 636.405 26.0319C636.2 26.2838 636.038 26.4928 635.929 26.6375C635.874 26.7098 635.833 26.766 635.805 26.8032L635.78 26.8374L635.752 26.8823C635.723 26.9275 635.68 26.9948 635.625 27.0821C635.515 27.2566 635.356 27.5108 635.161 27.8278C634.77 28.4622 634.235 29.3462 633.659 30.3449C632.496 32.362 631.208 34.7773 630.577 36.5471C629.954 38.2928 629.489 41.0937 629.182 43.7631C628.876 46.4159 628.739 48.8195 628.739 49.7173C628.739 51.6422 629.43 58.9293 631.892 65.025C633.063 67.9263 635.04 69.9478 637.056 71.2472C639.095 72.5618 641.105 73.094 642.267 73.094C644.694 73.094 648.96 72.0426 652.678 65.7335C656.98 56.0414 656.241 43.6542 652.633 34.0795Z" fill="#FD367E" stroke="#FD367E" stroke-width="2"/>
<path d="M764.146 12.4328L764.139 12.4277C763.407 11.8681 762.659 11.324 762.046 10.9013C761.739 10.6897 761.472 10.5125 761.26 10.3805C761.154 10.3144 761.067 10.2629 761 10.2254C760.941 10.1926 760.912 10.1788 760.905 10.1757C760.904 10.1749 760.904 10.1748 760.905 10.1753C760.759 10.1167 760.586 10.0441 760.432 9.95769C760.307 9.88759 760.032 9.72308 759.859 9.41319C759.759 9.23359 759.697 9.01321 759.713 8.77015C759.729 8.53685 759.811 8.34741 759.897 8.21061C760.051 7.96321 760.273 7.79088 760.433 7.67985C760.775 7.4429 761.298 7.17795 761.983 6.8616C762.686 6.53652 763.627 6.12675 764.847 5.6018L764.851 5.59992C780.9 -1.21332 800.213 -0.601547 814.617 8.39915L814.618 8.3999C833.636 20.3222 841.881 44.0768 834.358 65.0855L834.357 65.088C832.084 71.3842 828.942 76.0626 824.903 78.9766C820.844 81.9055 815.977 82.9809 810.416 82.2425C801.516 81.0823 795.027 73.032 791.805 60.1952C791.026 57.1857 790.747 52.2089 790.872 47.3891C790.996 42.5759 791.527 37.7124 792.463 34.9468C794.842 27.8617 798.452 21.716 803.155 16.6082L803.159 16.6037L805.19 14.4243L803.623 13.3766C803.622 13.376 803.621 13.3755 803.62 13.3749C800.981 11.6332 797.552 10.5581 794.24 9.93286C790.937 9.30953 787.83 9.14822 785.895 9.18581C781.97 9.26211 775.519 10.1229 770.851 12.8619C770.85 12.8628 770.848 12.8638 770.847 12.8647L768.024 14.5634L767.446 14.9108L766.908 14.5063L764.146 12.4328ZM761.411 8.21379C761.412 8.21394 761.412 8.21412 761.412 8.21427C761.402 8.20714 761.396 8.20406 761.397 8.20473C761.397 8.20528 761.402 8.20836 761.411 8.21379ZM824.16 34.0786L824.16 34.0786L824.157 34.0704C823.178 31.4028 821.251 28.2415 819.156 25.7503C818.111 24.5073 817.05 23.4623 816.076 22.7372C815.069 21.987 814.293 21.6843 813.794 21.6843C813.23 21.6843 812.545 21.9281 811.777 22.4065C811.022 22.8768 810.271 23.5202 809.594 24.1899C808.92 24.856 808.342 25.5258 807.932 26.031C807.727 26.2828 807.566 26.4918 807.456 26.6365C807.401 26.7089 807.36 26.765 807.333 26.8022L807.308 26.8364L807.279 26.8813C807.25 26.9265 807.208 26.9938 807.153 27.0811C807.042 27.2556 806.883 27.5098 806.688 27.8268C806.297 28.4612 805.762 29.3453 805.186 30.3439C804.024 32.361 802.735 34.7763 802.104 36.5462C801.481 38.2918 801.016 41.0928 800.709 43.7621C800.403 46.4149 800.266 48.8185 800.266 49.7163C800.266 51.6413 800.957 58.9283 803.419 65.0241C804.591 67.9253 806.567 69.9468 808.583 71.2462C810.623 72.5609 812.632 73.093 813.794 73.093C816.222 73.093 820.488 72.0416 824.205 65.7325C828.508 56.0405 827.768 43.6532 824.16 34.0786Z" fill="#FD367E" stroke="#FD367E" stroke-width="2"/>
<path d="M990.615 12.6005L990.609 12.5954C989.876 12.0358 989.128 11.4917 988.515 11.0691C988.208 10.8574 987.941 10.6802 987.729 10.5482C987.623 10.4821 987.537 10.4306 987.469 10.3931C987.411 10.3603 987.381 10.3465 987.375 10.3434C987.373 10.3426 987.373 10.3426 987.374 10.343C987.228 10.2844 987.055 10.2118 986.902 10.1254C986.777 10.0553 986.502 9.89081 986.328 9.58091C986.228 9.40131 986.166 9.18094 986.182 8.93787C986.198 8.70457 986.281 8.51514 986.366 8.37833C986.52 8.13094 986.742 7.9586 986.902 7.84757C987.244 7.61063 987.768 7.34567 988.452 7.02933C989.155 6.70425 990.096 6.29448 991.316 5.76952L991.321 5.76765C1007.37 -1.04559 1026.68 -0.433823 1041.09 8.56687L1041.09 8.56763C1060.1 20.4899 1068.35 44.2445 1060.83 65.2533L1060.83 65.2557C1058.55 71.552 1055.41 76.2304 1051.37 79.1444C1047.31 82.0733 1042.45 83.1486 1036.89 82.4103C1027.99 81.25 1021.5 73.1997 1018.27 60.3629C1017.5 57.3534 1017.22 52.3766 1017.34 47.5568C1017.47 42.7436 1018 37.8801 1018.93 35.1146C1021.31 28.0294 1024.92 21.8837 1029.62 16.7759L1029.63 16.7715L1031.66 14.5921L1030.09 13.5443C1030.09 13.5437 1030.09 13.5432 1030.09 13.5426C1027.45 11.8009 1024.02 10.7258 1020.71 10.1006C1017.41 9.47726 1014.3 9.31594 1012.36 9.35353C1008.44 9.42983 1001.99 10.2906 997.321 13.0296C997.319 13.0306 997.317 13.0315 997.316 13.0324L994.493 14.7312L993.916 15.0785L993.377 14.674L990.615 12.6005ZM987.881 8.38152C987.881 8.38167 987.881 8.38184 987.882 8.382C987.871 8.37486 987.866 8.37179 987.866 8.37246C987.866 8.37301 987.871 8.37608 987.881 8.38152ZM1050.63 34.2463L1050.63 34.2463L1050.63 34.2382C1049.65 31.5706 1047.72 28.4092 1045.63 25.9181C1044.58 24.675 1043.52 23.63 1042.55 22.905C1041.54 22.1547 1040.76 21.852 1040.26 21.852C1039.7 21.852 1039.01 22.0959 1038.25 22.5742C1037.49 23.0445 1036.74 23.6879 1036.06 24.3576C1035.39 25.0237 1034.81 25.6935 1034.4 26.1987C1034.2 26.4505 1034.03 26.6595 1033.93 26.8043C1033.87 26.8766 1033.83 26.9327 1033.8 26.97L1033.78 27.0041L1033.75 27.049C1033.72 27.0942 1033.68 27.1615 1033.62 27.2488C1033.51 27.4233 1033.35 27.6776 1033.16 27.9946C1032.77 28.6289 1032.23 29.513 1031.66 30.5116C1030.49 32.5287 1029.2 34.9441 1028.57 36.7139C1027.95 38.4596 1027.49 41.2605 1027.18 43.9299C1026.87 46.5827 1026.74 48.9863 1026.74 49.8841C1026.74 51.809 1027.43 59.0961 1029.89 65.1918C1031.06 68.093 1033.04 70.1145 1035.05 71.4139C1037.09 72.7286 1039.1 73.2607 1040.26 73.2607C1042.69 73.2607 1046.96 72.2094 1050.67 65.9002C1054.98 56.2082 1054.24 43.8209 1050.63 34.2463Z" fill="#FD367E" stroke="#FD367E" stroke-width="2"/>
<path d="M348.835 12.5724L348.842 12.5673C349.574 12.0077 350.322 11.4636 350.935 11.041C351.242 10.8293 351.51 10.6521 351.721 10.5201C351.827 10.454 351.914 10.4026 351.981 10.3651C352.04 10.3323 352.069 10.3184 352.076 10.3153C352.078 10.3146 352.078 10.3145 352.077 10.3149C352.223 10.2563 352.395 10.1838 352.549 10.0973C352.674 10.0272 352.949 9.86273 353.122 9.55283C353.223 9.37324 353.285 9.15286 353.268 8.9098C353.253 8.6765 353.17 8.48706 353.085 8.35026C352.931 8.10286 352.709 7.93053 352.549 7.8195C352.207 7.58255 351.683 7.3176 350.999 7.00125C350.296 6.67617 349.355 6.2664 348.134 5.74145L348.13 5.73957C332.081 -1.07367 312.768 -0.461899 298.365 8.5388L298.364 8.53955C279.346 20.4618 271.101 44.2165 278.624 65.2252L278.624 65.2276C280.898 71.5239 284.04 76.2023 288.078 79.1163C292.138 82.0452 297.005 83.1205 302.565 82.3822C311.466 81.222 317.954 73.1716 321.176 60.3348C321.955 57.3254 322.234 52.3485 322.11 47.5288C321.985 42.7155 321.454 37.852 320.518 35.0865C318.139 28.0013 314.529 21.8556 309.827 16.7478L309.822 16.7434L307.791 14.564L309.359 13.5162C309.359 13.5157 309.36 13.5151 309.361 13.5145C312.001 11.7729 315.429 10.6977 318.742 10.0725C322.045 9.44918 325.152 9.28786 327.086 9.32545C331.012 9.40176 337.462 10.2625 342.13 13.0016C342.132 13.0025 342.133 13.0034 342.135 13.0043L344.958 14.7031L345.535 15.0504L346.074 14.6459L348.835 12.5724ZM351.57 8.35344C351.57 8.35359 351.569 8.35377 351.569 8.35392C351.579 8.34679 351.585 8.34371 351.585 8.34438C351.584 8.34493 351.58 8.34801 351.57 8.35344ZM288.821 34.2182L288.821 34.2182L288.824 34.2101C289.803 31.5425 291.731 28.3812 293.825 25.89C294.871 24.647 295.931 23.6019 296.905 22.8769C297.913 22.1266 298.688 21.8239 299.188 21.8239C299.752 21.8239 300.436 22.0678 301.204 22.5461C301.959 23.0164 302.71 23.6598 303.388 24.3295C304.061 24.9956 304.639 25.6655 305.05 26.1706C305.254 26.4224 305.416 26.6315 305.525 26.7762C305.58 26.8485 305.622 26.9046 305.649 26.9419L305.674 26.976L305.702 27.0209C305.731 27.0662 305.774 27.1335 305.829 27.2207C305.939 27.3952 306.098 27.6495 306.294 27.9665C306.685 28.6008 307.219 29.4849 307.795 30.4835C308.958 32.5007 310.246 34.916 310.878 36.6858C311.501 38.4315 311.965 41.2324 312.273 43.9018C312.578 46.5546 312.716 48.9582 312.716 49.856C312.716 51.7809 312.025 59.068 309.563 65.1637C308.391 68.0649 306.414 70.0864 304.398 71.3859C302.359 72.7005 300.349 73.2327 299.188 73.2327C296.76 73.2327 292.494 72.1813 288.776 65.8721C284.474 56.1801 285.213 43.7928 288.821 34.2182Z" fill="#FD367E" stroke="#FD367E" stroke-width="2"/>
<path d="M1130.83 167.345C1138.14 143.125 1143.78 73.706 1122.5 41.412C1101.23 9.11798 1055.75 3.04663 1035.76 14.6291" stroke="#FD367E" stroke-width="10"/>
<path d="M189.5 207.824C182.187 183.604 172.999 102.88 203.5 57.9039C234 12.9281 275.876 3.047 295.867 14.6294" stroke="#FD367E" stroke-width="10"/>
<rect width="1319" height="32.9825" transform="matrix(-1 0 0 1 1389 298.276)" fill="#333333"/>
<path d="M1067.6 156.678L1076.57 175.378V403.881L921.608 721.268L917.394 729.9H927H1329.81H1339.41L1335.2 721.269L1180.33 403.881V175.236L1188.32 156.431L1191.87 148.083H1182.8H1073.01H1063.47L1067.6 156.678Z" fill="#FFFEE6" stroke="#333333" stroke-width="12"/>
<path d="M1174.33 405.267V308.942L1134 308.942L1097 308.942H1082.57V405.267L927 723.9H1329.81L1174.33 405.267Z" fill="#FF3434"/>
<rect x="141.071" y="197.348" width="114.153" height="18.4392" fill="#333333"/>
<path d="M230.265 216.126V210.126L224.265 210.126L205.643 210.126L188.347 210.126H172.507H166.507V216.126V445.906L14.6831 736.247L10.0917 745.027H20H376.683H386.589L382.001 736.248L230.265 445.907V216.126Z" fill="#FFFEE6" stroke="#333333" stroke-width="12"/>
<path d="M20 739.028H376.683L224.265 447.381H172.507L20 739.028Z" fill="#FD367E"/>
<path d="M616.487 451.993V153.523H677.773V451.993L744.414 478.754L796.775 529.897L812.84 567.958H477.85L524.856 498.379L583.762 462.102L616.487 451.993Z" fill="#FFFEE6"/>
<path d="M800.345 534.92H493.753L467.14 598.288V633.375L474.875 684.518L502.841 737.446L529.616 767.181L586.737 797.51L650.403 811.783L713.474 796.321L760.48 767.181L800.345 724.363L818.196 676.787L824.146 619.697L818.196 585.799L800.345 534.92Z" fill="#3ABA62"/>
<path d="M613 144L613 456" stroke="#333333" stroke-width="12"/>
<line x1="677" y1="145" x2="677" y2="457" stroke="#333333" stroke-width="12"/>
<rect x="586.836" y="135.363" width="116.459" height="18.4392" fill="#333333"/>
<path fill-rule="evenodd" clip-rule="evenodd" d="M671 457.725C754.946 469.846 819.286 541.293 819.286 628.456C819.286 724.295 741.549 802 645.643 802C549.737 802 472 724.295 472 628.456C472 541.739 535.684 470.577 619 457.915V445.786C529.095 458.554 460 535.024 460 628.456C460 730.929 543.115 814 645.643 814C748.171 814 831.286 730.929 831.286 628.456C831.286 534.579 761.532 457.826 671 445.608V457.725Z" fill="#333333"/>
<rect width="180" height="60.9676" transform="matrix(-1 0 0 1 1218 285.283)" fill="#333333"/>
<rect width="136" height="60.9676" transform="matrix(-1 0 0 1 714 285.283)" fill="#333333"/>
<rect width="103" height="60.9676" transform="matrix(-1 0 0 1 250 285.283)" fill="#333333"/>
</svg>
