<svg width="1440" height="2543" viewBox="0 0 1440 2543" fill="none" xmlns="http://www.w3.org/2000/svg">
<rect y="2177" width="1440" height="366" fill="#333333"/>
<path d="M297.455 1485.41H300.955V1488.91V1777.59C300.955 1791.13 289.986 1802.09 276.455 1802.09H270.73C257.199 1802.09 246.23 1791.13 246.23 1777.59V1488.91V1485.41H249.73H297.455Z" fill="#FFFEE6" stroke="#333333" stroke-width="7"/>
<path d="M299.788 1654H247.788C247.788 1657.76 247.538 1738.36 247.415 1777.56C247.379 1789.18 256.792 1798.59 268.415 1798.59H277.542C289.045 1798.59 298.407 1789.35 298.537 1777.85C298.957 1740.7 299.788 1665.62 299.788 1654Z" fill="#3ABA62"/>
<path d="M297.455 1485.41H300.955V1488.91V1777.59C300.955 1791.13 289.986 1802.09 276.455 1802.09H270.73C257.199 1802.09 246.23 1791.13 246.23 1777.59V1488.91V1485.41H249.73H297.455Z" stroke="#333333" stroke-width="7"/>
<rect x="3.5" y="-3.5" width="73.8157" height="22.9085" transform="matrix(-1 0 0 1 314 1473)" fill="#FFFEE6" stroke="#333333" stroke-width="7"/>
<rect x="249" y="1778" width="2" height="18" transform="rotate(-90 249 1778)" fill="#333333"/>
<rect x="249" y="1724" width="2" height="18" transform="rotate(-90 249 1724)" fill="#333333"/>
<rect x="249" y="1670" width="2" height="18" transform="rotate(-90 249 1670)" fill="#333333"/>
<rect x="249" y="1751" width="2" height="18" transform="rotate(-90 249 1751)" fill="#333333"/>
<rect x="249" y="1697" width="2" height="18" transform="rotate(-90 249 1697)" fill="#333333"/>
<rect x="249" y="1643" width="2" height="18" transform="rotate(-90 249 1643)" fill="#333333"/>
<rect x="249" y="1616" width="2" height="18" transform="rotate(-90 249 1616)" fill="#333333"/>
<rect width="92" height="52" transform="matrix(-1 0 0 1 319 1508)" fill="#333333"/>
<path d="M802 2166L802 488H835L835 2166H802Z" fill="#333333"/>
<rect x="800" y="534" width="534" height="33" transform="rotate(-90 800 534)" fill="#333333"/>
<rect x="102" y="559" width="727" height="33" fill="#333333"/>
<rect x="809" y="319" width="476" height="33" fill="#333333"/>
<circle cx="818.5" cy="575.5" r="56.5" fill="#333333"/>
<circle cx="819" cy="576" r="46" fill="#FFFEE6"/>
<rect x="817" y="532" width="4" height="11" fill="#333333"/>
<rect x="796" y="539" width="4" height="11" transform="rotate(-30 796 539)" fill="#333333"/>
<rect width="4" height="11" transform="matrix(-0.866025 -0.5 -0.5 0.866025 841.964 539)" fill="#333333"/>
<rect x="780" y="555.464" width="4" height="11" transform="rotate(-60 780 555.464)" fill="#333333"/>
<rect width="4" height="11" transform="matrix(-0.5 -0.866025 -0.866025 0.5 858.053 555.464)" fill="#333333"/>
<rect x="774" y="578" width="4" height="11" transform="rotate(-90 774 578)" fill="#333333"/>
<rect width="4" height="11" transform="matrix(0 -1 -1 0 862 578)" fill="#333333"/>
<path d="M785.364 556.503C785.364 556.503 812.724 564.533 821.757 569.748C830.79 574.963 824.229 586.885 815.152 581.468C806.074 576.051 785.364 556.503 785.364 556.503Z" fill="#FD367E"/>
<path d="M1110.47 213.594L1120.98 235.532V501.327L917.859 838.931L912.388 848.024H923H1391H1401.61L1396.14 838.932L1193.12 501.328V235.39L1202.49 213.347L1206.03 205H1196.97H1115.88H1106.35L1110.47 213.594Z" fill="#FFFEE6" stroke="#333333" stroke-width="12"/>
<path d="M923 842.024H1391L1289.06 672.509L1238.09 587.751H1075.99L1024.99 672.509L923 842.024Z" fill="#FF3434"/>
<path d="M1126.82 1563.6C1115 1454 1150.31 1397.54 1186.5 1372.5C1280.93 1307.17 1342 1361 1300.5 1394C1259 1427 1209.49 1376 1236.5 1288C1252 1237.5 1272.5 1133 1236.5 1075C1200.5 1017 1089 993 1069.5 1057.5" stroke="#3ABA62" stroke-width="9"/>
<path d="M1091.27 1074.41H1094.77V1077.91V1366.59C1094.77 1380.13 1083.8 1391.09 1070.27 1391.09H1064.55C1051.01 1391.09 1040.05 1380.13 1040.05 1366.59V1077.91V1074.41H1043.55H1091.27Z" fill="#FFFEE6" stroke="#333333" stroke-width="7"/>
<path d="M1092.18 1191H1041.18C1041.18 1194.95 1041.17 1316.84 1041.17 1366.67C1041.16 1378.27 1050.57 1387.59 1062.17 1387.59H1071.12C1082.72 1387.59 1092.12 1378.26 1092.12 1366.66C1092.14 1318.55 1092.18 1203.26 1092.18 1191Z" fill="#3ABA62"/>
<path d="M1091.27 1074.41H1094.77V1077.91V1366.59C1094.77 1380.13 1083.8 1391.09 1070.27 1391.09H1064.55C1051.01 1391.09 1040.05 1380.13 1040.05 1366.59V1077.91V1074.41H1043.55H1091.27Z" stroke="#333333" stroke-width="7"/>
<rect x="3.5" y="-3.5" width="73.8157" height="22.9085" transform="matrix(-1 0 0 1 1107.82 1062)" fill="#FFFEE6" stroke="#333333" stroke-width="7"/>
<rect x="1042.82" y="1367" width="2" height="18" transform="rotate(-90 1042.82 1367)" fill="#333333"/>
<rect x="1042.82" y="1313" width="2" height="18" transform="rotate(-90 1042.82 1313)" fill="#333333"/>
<rect x="1042.82" y="1259" width="2" height="18" transform="rotate(-90 1042.82 1259)" fill="#333333"/>
<rect x="1042.82" y="1340" width="2" height="18" transform="rotate(-90 1042.82 1340)" fill="#333333"/>
<rect x="1042.82" y="1286" width="2" height="18" transform="rotate(-90 1042.82 1286)" fill="#333333"/>
<rect x="1042.82" y="1232" width="2" height="18" transform="rotate(-90 1042.82 1232)" fill="#333333"/>
<rect x="1042.82" y="1205" width="2" height="18" transform="rotate(-90 1042.82 1205)" fill="#333333"/>
<path d="M429.455 1485.41H432.955V1488.91V1777.59C432.955 1791.13 421.986 1802.09 408.455 1802.09H402.73C389.199 1802.09 378.23 1791.13 378.23 1777.59V1488.91V1485.41H381.73H429.455Z" fill="#FFFEE6" stroke="#333333" stroke-width="7"/>
<path d="M430.369 1602H379.369C379.369 1605.95 379.356 1727.84 379.351 1777.67C379.35 1789.27 388.752 1798.59 400.351 1798.59H409.308C420.903 1798.59 430.304 1789.26 430.308 1777.66C430.326 1729.55 430.369 1614.26 430.369 1602Z" fill="#FD367E"/>
<path d="M429.455 1485.41H432.955V1488.91V1777.59C432.955 1791.13 421.986 1802.09 408.455 1802.09H402.73C389.199 1802.09 378.23 1791.13 378.23 1777.59V1488.91V1485.41H381.73H429.455Z" stroke="#333333" stroke-width="7"/>
<rect x="3.5" y="-3.5" width="73.8157" height="22.9085" transform="matrix(-1 0 0 1 446 1473)" fill="#FFFEE6" stroke="#333333" stroke-width="7"/>
<rect x="381" y="1778" width="2" height="18" transform="rotate(-90 381 1778)" fill="#333333"/>
<rect x="381" y="1724" width="2" height="18" transform="rotate(-90 381 1724)" fill="#333333"/>
<rect x="381" y="1670" width="2" height="18" transform="rotate(-90 381 1670)" fill="#333333"/>
<rect x="381" y="1751" width="2" height="18" transform="rotate(-90 381 1751)" fill="#333333"/>
<rect x="381" y="1697" width="2" height="18" transform="rotate(-90 381 1697)" fill="#333333"/>
<rect x="381" y="1643" width="2" height="18" transform="rotate(-90 381 1643)" fill="#333333"/>
<rect x="381" y="1616" width="2" height="18" transform="rotate(-90 381 1616)" fill="#333333"/>
<path d="M825 1113H1134V1146H825V1113Z" fill="#333333"/>
<path d="M804 1518H128V1551H804V1518Z" fill="#333333"/>
<path d="M670 2119H1136V2180H670V2119Z" fill="#333333"/>
<path d="M961.271 1074.41H964.771V1077.91V1366.59C964.771 1380.13 953.801 1391.09 940.27 1391.09H934.545C921.014 1391.09 910.045 1380.13 910.045 1366.59V1077.91V1074.41H913.545H961.271Z" fill="#FFFEE6" stroke="#333333" stroke-width="7"/>
<path d="M963.604 1243H911.604C911.604 1246.76 911.353 1327.36 911.231 1366.56C911.194 1378.18 920.607 1387.59 932.231 1387.59H941.357C952.861 1387.59 962.223 1378.35 962.353 1366.85C962.772 1329.7 963.604 1254.62 963.604 1243Z" fill="#FF3434"/>
<path d="M961.271 1074.41H964.771V1077.91V1366.59C964.771 1380.13 953.801 1391.09 940.27 1391.09H934.545C921.014 1391.09 910.045 1380.13 910.045 1366.59V1077.91V1074.41H913.545H961.271Z" stroke="#333333" stroke-width="7"/>
<rect x="3.5" y="-3.5" width="73.8157" height="22.9085" transform="matrix(-1 0 0 1 977.815 1062)" fill="#FFFEE6" stroke="#333333" stroke-width="7"/>
<rect x="912.815" y="1367" width="2" height="18" transform="rotate(-90 912.815 1367)" fill="#333333"/>
<rect x="912.815" y="1313" width="2" height="18" transform="rotate(-90 912.815 1313)" fill="#333333"/>
<rect x="912.815" y="1259" width="2" height="18" transform="rotate(-90 912.815 1259)" fill="#333333"/>
<rect x="912.815" y="1340" width="2" height="18" transform="rotate(-90 912.815 1340)" fill="#333333"/>
<rect x="912.815" y="1286" width="2" height="18" transform="rotate(-90 912.815 1286)" fill="#333333"/>
<rect x="912.815" y="1232" width="2" height="18" transform="rotate(-90 912.815 1232)" fill="#333333"/>
<rect x="912.815" y="1205" width="2" height="18" transform="rotate(-90 912.815 1205)" fill="#333333"/>
<path d="M561.455 1485.41H564.955V1488.91V1777.59C564.955 1791.13 553.986 1802.09 540.455 1802.09H534.73C521.199 1802.09 510.23 1791.13 510.23 1777.59V1488.91V1485.41H513.73H561.455Z" fill="#FFFEE6" stroke="#333333" stroke-width="7"/>
<path d="M563.788 1707H511.788C511.788 1710.38 511.585 1751.52 511.455 1777.5C511.397 1789.14 520.816 1798.59 532.456 1798.59H541.708C553.146 1798.59 562.479 1789.46 562.692 1778.02C563.132 1754.32 563.788 1717.32 563.788 1707Z" fill="#FF3434"/>
<path d="M561.455 1485.41H564.955V1488.91V1777.59C564.955 1791.13 553.986 1802.09 540.455 1802.09H534.73C521.199 1802.09 510.23 1791.13 510.23 1777.59V1488.91V1485.41H513.73H561.455Z" stroke="#333333" stroke-width="7"/>
<rect x="3.5" y="-3.5" width="73.8157" height="22.9085" transform="matrix(-1 0 0 1 578 1473)" fill="#FFFEE6" stroke="#333333" stroke-width="7"/>
<rect x="513" y="1778" width="2" height="18" transform="rotate(-90 513 1778)" fill="#333333"/>
<rect x="513" y="1724" width="2" height="18" transform="rotate(-90 513 1724)" fill="#333333"/>
<rect x="513" y="1670" width="2" height="18" transform="rotate(-90 513 1670)" fill="#333333"/>
<rect x="513" y="1751" width="2" height="18" transform="rotate(-90 513 1751)" fill="#333333"/>
<rect x="513" y="1697" width="2" height="18" transform="rotate(-90 513 1697)" fill="#333333"/>
<rect x="513" y="1643" width="2" height="18" transform="rotate(-90 513 1643)" fill="#333333"/>
<rect x="513" y="1616" width="2" height="18" transform="rotate(-90 513 1616)" fill="#333333"/>
<path d="M693.455 1485.41H696.955V1488.91V1777.59C696.955 1791.13 685.986 1802.09 672.455 1802.09H666.73C653.199 1802.09 642.23 1791.13 642.23 1777.59V1488.91V1485.41H645.73H693.455Z" fill="#FFFEE6" stroke="#333333" stroke-width="7"/>
<path d="M695.788 1642H643.788C643.788 1645.81 643.53 1735.78 643.41 1777.59C643.377 1789.21 652.789 1798.59 664.41 1798.59H673.521C685.033 1798.59 694.398 1789.38 694.517 1777.86C694.93 1738.06 695.788 1653.8 695.788 1642Z" fill="#FD367E"/>
<path d="M693.455 1485.41H696.955V1488.91V1777.59C696.955 1791.13 685.986 1802.09 672.455 1802.09H666.73C653.199 1802.09 642.23 1791.13 642.23 1777.59V1488.91V1485.41H645.73H693.455Z" stroke="#333333" stroke-width="7"/>
<rect x="3.5" y="-3.5" width="73.8157" height="22.9085" transform="matrix(-1 0 0 1 710 1473)" fill="#FFFEE6" stroke="#333333" stroke-width="7"/>
<rect x="645" y="1778" width="2" height="18" transform="rotate(-90 645 1778)" fill="#333333"/>
<rect x="645" y="1724" width="2" height="18" transform="rotate(-90 645 1724)" fill="#333333"/>
<rect x="645" y="1670" width="2" height="18" transform="rotate(-90 645 1670)" fill="#333333"/>
<rect x="645" y="1751" width="2" height="18" transform="rotate(-90 645 1751)" fill="#333333"/>
<rect x="645" y="1697" width="2" height="18" transform="rotate(-90 645 1697)" fill="#333333"/>
<rect x="645" y="1643" width="2" height="18" transform="rotate(-90 645 1643)" fill="#333333"/>
<rect x="645" y="1616" width="2" height="18" transform="rotate(-90 645 1616)" fill="#333333"/>
<rect x="891" y="1103" width="92" height="52" fill="#333333"/>
<rect width="92" height="52" transform="matrix(-1 0 0 1 715 1508)" fill="#333333"/>
<rect width="92" height="52" transform="matrix(-1 0 0 1 451 1508)" fill="#333333"/>
<rect x="1020" y="1103" width="92" height="52" fill="#333333"/>
<rect width="92" height="52" transform="matrix(-1 0 0 1 583 1508)" fill="#333333"/>
<path d="M673 1082.58C673 1212.32 567.576 1317.51 437.5 1317.51C307.424 1317.51 202 1212.32 202 1082.58C202 952.848 307.424 847.653 437.5 847.653C567.576 847.653 673 952.848 673 1082.58Z" fill="#FFFEE6" stroke="#333333" stroke-width="12"/>
<path d="M276.881 916.268C238.149 944.697 191.8 1003.28 203.773 1107.65C215.745 1212.02 657.654 1155.69 657.654 1155.69C657.654 1155.69 721.739 1013.85 592.426 912.281C541.164 916.268 328.142 916.268 276.881 916.268Z" fill="#FD367E"/>
<path d="M437.499 1312.12C565.213 1312.12 668.746 1208.08 668.746 1079.74H437.499H206.251C206.251 1208.08 309.784 1312.12 437.499 1312.12Z" fill="#FD367E"/>
<mask id="path-97-inside-1_809_1164" fill="white">
<path d="M394 436H482V856H394V436Z"/>
</mask>
<path d="M394 436H482V856H394V436Z" fill="#FFFEE6"/>
<path d="M394 436V424H382V436H394ZM482 436H494V424H482V436ZM394 448H482V424H394V448ZM470 436V856H494V436H470ZM406 856V436H382V856H406Z" fill="#333333" mask="url(#path-97-inside-1_809_1164)"/>
<path d="M673 1082.58C673 1212.32 567.576 1317.51 437.5 1317.51C307.424 1317.51 202 1212.32 202 1082.58C202 952.848 307.424 847.653 437.5 847.653C567.576 847.653 673 952.848 673 1082.58Z" stroke="#333333" stroke-width="12"/>
<path d="M406 437H470V873H406V437Z" fill="#FFFEE6"/>
<rect x="375" y="428" width="126" height="15" fill="#333333"/>
<rect x="375" y="548" width="136" height="61" fill="#333333"/>
<rect x="1084" y="305" width="136" height="61" fill="#333333"/>
<path d="M1094.08 1912.53V1565.07H1165.38V1912.53L1242.92 1943.68L1303.85 2003.22L1322.54 2047.53H932.769L987.461 1966.53L1056 1924.3L1094.08 1912.53Z" fill="#FFFEE6"/>
<path d="M1308 2009.07H951.273L920.308 2082.84V2123.68L929.308 2183.22L961.846 2244.84L993 2279.45L1059.46 2314.76L1133.54 2331.38L1206.92 2313.38L1261.62 2279.45L1308 2229.61L1328.77 2174.22L1335.69 2107.76L1328.77 2068.3L1308 2009.07Z" fill="#3ABA62"/>
<line x1="1090" y1="1556" x2="1090" y2="1919" stroke="#333333" stroke-width="12"/>
<line x1="1163" y1="1556" x2="1163" y2="1919" stroke="#333333" stroke-width="12"/>
<path fill-rule="evenodd" clip-rule="evenodd" d="M1159.19 1918.66C1257.05 1933.67 1332 2018.22 1332 2120.29C1332 2232.95 1240.67 2324.29 1128 2324.29C1015.33 2324.29 924 2232.95 924 2120.29C924 2018.63 998.361 1934.33 1095.66 1918.84V1906.69C991.706 1922.3 912 2011.98 912 2120.29C912 2239.58 1008.71 2336.29 1128 2336.29C1247.29 2336.29 1344 2239.58 1344 2120.29C1344 2011.58 1263.7 1921.64 1159.19 1906.52V1918.66Z" fill="#333333"/>
<rect x="1074" y="1551" width="109" height="13" fill="#333333"/>
<path d="M350.558 2016.39L292.61 2116.76L364.043 2158L421.991 2057.63L395.769 2042.49L481.768 1895.62L462.779 1884.66L377.684 2032.05L350.558 2016.39Z" fill="#333333" stroke="#333333" stroke-width="7"/>
<path fill-rule="evenodd" clip-rule="evenodd" d="M513 2087.85H151V2118.8H173.02C174.105 2192.34 219.691 2280 332.405 2280C445.12 2280 490.705 2192.34 491.791 2118.8H513V2087.85Z" fill="#FF3434"/>
<path d="M151 2087.85V2084.35H147.5V2087.85H151ZM513 2087.85H516.5V2084.35H513V2087.85ZM151 2118.8H147.5V2122.3H151V2118.8ZM173.02 2118.8L176.519 2118.75L176.468 2115.3H173.02V2118.8ZM491.791 2118.8V2115.3H488.343L488.292 2118.75L491.791 2118.8ZM513 2118.8V2122.3H516.5V2118.8H513ZM151 2091.35H513V2084.35H151V2091.35ZM154.5 2118.8V2087.85H147.5V2118.8H154.5ZM173.02 2115.3H151V2122.3H173.02V2115.3ZM169.52 2118.85C170.072 2156.26 181.933 2197.37 208.15 2229.2C234.454 2261.14 275.031 2283.5 332.405 2283.5V2276.5C277.065 2276.5 238.492 2255.03 213.553 2224.75C188.527 2194.37 177.053 2154.88 176.519 2118.75L169.52 2118.85ZM332.405 2283.5C389.78 2283.5 430.356 2261.14 456.661 2229.2C482.877 2197.37 494.738 2156.26 495.291 2118.85L488.292 2118.75C487.758 2154.88 476.284 2194.37 451.257 2224.75C426.319 2255.03 387.746 2276.5 332.405 2276.5V2283.5ZM513 2115.3H491.791V2122.3H513V2115.3ZM509.5 2087.85V2118.8H516.5V2087.85H509.5Z" fill="#333333"/>
</svg>
