<svg width="1440" height="306" viewBox="0 0 1440 306" fill="none" xmlns="http://www.w3.org/2000/svg">
<rect width="1440" height="306" fill="#FFFEE6"/>
<rect x="529" y="2" width="2" height="304" fill="#333333"/>
<rect x="225" y="2" width="2" height="304" fill="#333333"/>
<rect x="833" y="2" width="2" height="304" fill="#333333"/>
<rect x="1365" y="2" width="2" height="304" fill="#333333"/>
<rect x="73" y="2" width="2" height="304" fill="#333333"/>
<rect x="681" y="2" width="2" height="304" fill="#333333"/>
<rect x="1213" y="2" width="2" height="304" fill="#333333"/>
<rect x="377" y="2" width="2" height="304" fill="#333333"/>
<rect x="985" y="2" width="2" height="304" fill="#333333"/>
<rect x="605" y="2" width="2" height="304" fill="#333333"/>
<rect x="301" y="2" width="2" height="304" fill="#333333"/>
<rect x="909" y="2" width="2" height="304" fill="#333333"/>
<rect x="149" y="2" width="2" height="304" fill="#333333"/>
<rect x="757" y="2" width="2" height="304" fill="#333333"/>
<rect x="1289" y="2" width="2" height="304" fill="#333333"/>
<rect x="453" y="2" width="2" height="304" fill="#333333"/>
<rect x="1061" y="2" width="2" height="304" fill="#333333"/>
<rect x="1137" y="2" width="2" height="304" fill="#333333"/>
<rect y="154" width="2" height="1440" transform="rotate(-90 0 154)" fill="#333333"/>
<rect y="230" width="2" height="1440" transform="rotate(-90 0 230)" fill="#333333"/>
<rect y="78" width="2" height="1440" transform="rotate(-90 0 78)" fill="#333333"/>
<rect y="2" width="2" height="1440" transform="rotate(-90 0 2)" fill="#333333"/>
<rect y="306" width="2" height="1440" transform="rotate(-90 0 306)" fill="#333333"/>
<line x1="3" y1="-3" x2="163.82" y2="-3" transform="matrix(-0.866025 -0.5 -0.5 0.866025 781.471 194)" stroke="#333333" stroke-width="6" stroke-linecap="round"/>
<line x1="3" y1="-3" x2="163.82" y2="-3" transform="matrix(-0.866025 -0.5 -0.5 0.866025 492.471 194)" stroke="#333333" stroke-width="6" stroke-linecap="round"/>
<line x1="978.098" y1="189.902" x2="1117.37" y2="109.492" stroke="#333333" stroke-width="6" stroke-linecap="round"/>
<line x1="503.594" y1="186.926" x2="629.155" y2="114.434" stroke="#333333" stroke-width="4.5" stroke-linecap="round"/>
<line x1="817.25" y1="191.75" x2="933.815" y2="191.75" stroke="#333333" stroke-width="4.5" stroke-linecap="round"/>
<circle cx="1100" cy="115" r="29" fill="#FD367E"/>
<circle cx="492" cy="191" r="29" fill="#FD367E"/>
<circle cx="340" cy="115" r="29" fill="#FF3434"/>
<circle cx="948" cy="191" r="29" fill="#FF3434"/>
<circle cx="796" cy="191" r="29" fill="#3ABA62"/>
<circle cx="644" cy="115" r="29" fill="#333333"/>
</svg>
