<svg width="1440" height="990" viewBox="0 0 1440 990" fill="none" xmlns="http://www.w3.org/2000/svg">
<rect width="1440" height="990" fill="#FFFEE6"/>
<rect y="154" width="2" height="1440" transform="rotate(-90 0 154)" fill="#333333"/>
<rect y="914" width="2" height="1440" transform="rotate(-90 0 914)" fill="#333333"/>
<rect y="230" width="2" height="1440" transform="rotate(-90 0 230)" fill="#333333"/>
<rect y="990" width="2" height="1440" transform="rotate(-90 0 990)" fill="#333333"/>
<rect y="78" width="2" height="1440" transform="rotate(-90 0 78)" fill="#333333"/>
<rect y="838" width="2" height="1440" transform="rotate(-90 0 838)" fill="#333333"/>
<rect y="2" width="2" height="1440" transform="rotate(-90 0 2)" fill="#333333"/>
<rect y="762" width="2" height="1440" transform="rotate(-90 0 762)" fill="#333333"/>
<rect y="306" width="2" height="1440" transform="rotate(-90 0 306)" fill="#333333"/>
<rect y="534" width="2" height="1440" transform="rotate(-90 0 534)" fill="#333333"/>
<rect y="610" width="2" height="1440" transform="rotate(-90 0 610)" fill="#333333"/>
<rect y="458" width="2" height="1440" transform="rotate(-90 0 458)" fill="#333333"/>
<rect y="382" width="2" height="1440" transform="rotate(-90 0 382)" fill="#333333"/>
<rect y="686" width="2" height="1440" transform="rotate(-90 0 686)" fill="#333333"/>
<rect x="529" y="2" width="2" height="988" fill="#333333"/>
<rect x="225" y="2" width="2" height="988" fill="#333333"/>
<rect x="833" y="2" width="2" height="988" fill="#333333"/>
<rect x="1365" y="2" width="2" height="988" fill="#333333"/>
<rect x="73" y="2" width="2" height="988" fill="#333333"/>
<rect x="681" y="2" width="2" height="988" fill="#333333"/>
<rect x="1213" y="2" width="2" height="988" fill="#333333"/>
<rect x="377" y="2" width="2" height="988" fill="#333333"/>
<rect x="985" y="2" width="2" height="988" fill="#333333"/>
<rect x="605" y="2" width="2" height="988" fill="#333333"/>
<rect x="301" y="2" width="2" height="988" fill="#333333"/>
<rect x="909" y="2" width="2" height="988" fill="#333333"/>
<rect x="149" y="2" width="2" height="988" fill="#333333"/>
<rect x="757" y="2" width="2" height="988" fill="#333333"/>
<rect x="1289" y="2" width="2" height="988" fill="#333333"/>
<rect x="453" y="2" width="2" height="988" fill="#333333"/>
<rect x="1061" y="2" width="2" height="988" fill="#333333"/>
<rect x="1137" y="2" width="2" height="988" fill="#333333"/>
</svg>
