<svg width="224" height="225" viewBox="0 0 224 225" fill="none" xmlns="http://www.w3.org/2000/svg">
<rect x="107.001" y="21.2886" width="9" height="180" fill="#333333"/>
<rect x="21.001" y="115.289" width="8" height="182" transform="rotate(-90 21.001 115.289)" fill="#333333"/>
<rect x="45.4043" y="50.5449" width="7.81367" height="179.714" transform="rotate(-45 45.4043 50.5449)" fill="#333333"/>
<rect x="173.027" y="45.3364" width="7.81367" height="179.714" transform="rotate(45 173.027 45.3364)" fill="#333333"/>
<ellipse cx="111.501" cy="110.289" rx="38.5" ry="38" fill="#3ABA62"/>
<ellipse cx="111.501" cy="211.789" rx="13.5" ry="12.5" fill="#3ABA62"/>
<circle cx="181.501" cy="182.789" r="12.5" fill="#3ABA62"/>
<circle cx="211.501" cy="110.789" r="12.5" fill="#3ABA62"/>
<ellipse cx="183.501" cy="45.2886" rx="12.5" ry="12" fill="#3ABA62"/>
<ellipse cx="111.501" cy="12.7886" rx="13.5" ry="12.5" fill="#3ABA62"/>
<ellipse cx="42.001" cy="45.2886" rx="13" ry="12" fill="#3ABA62"/>
<circle cx="12.501" cy="110.789" r="12.5" fill="#3ABA62"/>
<ellipse cx="42.001" cy="177.789" rx="13" ry="12.5" fill="#3ABA62"/>
</svg>
