<svg width="236" height="163" viewBox="0 0 236 163" fill="none" xmlns="http://www.w3.org/2000/svg">
<line x1="3" y1="-3" x2="84.7177" y2="-3" transform="matrix(-0.92076 0.39013 -0.39041 -0.920641 206.586 30.0212)" stroke="#333333" stroke-width="6" stroke-linecap="round"/>
<line x1="3" y1="-3" x2="84.5275" y2="-3" transform="matrix(-0.855338 0.51807 -0.518391 -0.855144 109.842 78.7976)" stroke="#333333" stroke-width="6" stroke-linecap="round"/>
<line x1="3" y1="-3" x2="84.1985" y2="-3" transform="matrix(0.839204 0.543817 0.54414 -0.838994 126.781 77.9553)" stroke="#333333" stroke-width="6" stroke-linecap="round"/>
<ellipse cx="21.5935" cy="21.5977" rx="21.5935" ry="21.5977" transform="matrix(-0.518391 -0.855144 0.855338 -0.51807 22.3877 161.152)" fill="#3ABA62"/>
<ellipse cx="21.5935" cy="21.5977" rx="21.5935" ry="21.5977" transform="matrix(-0.518391 -0.855144 0.855338 -0.51807 196.776 163)" fill="#3ABA62"/>
<ellipse cx="21.5935" cy="21.5977" rx="21.5935" ry="21.5977" transform="matrix(-0.518391 -0.855144 0.855338 -0.51807 114.435 103.918)" fill="#3ABA62"/>
<ellipse cx="21.5935" cy="21.5977" rx="21.5935" ry="21.5977" transform="matrix(-0.518391 -0.855144 0.855338 -0.51807 199.053 59.3091)" fill="#3ABA62"/>
</svg>
