<svg width="1440" height="394" viewBox="0 0 1440 394" fill="none" xmlns="http://www.w3.org/2000/svg">
<path d="M240.034 71.439L121.922 5.23902L5.23828 74.2965V210.507L122.398 278.611L240.034 211.459V71.439Z" fill="#FFFEE6"/>
<rect y="71.1211" width="6.61078" height="141.66" fill="#333333"/>
<rect x="122.772" y="0.291451" width="6.61078" height="141.66" transform="rotate(60 122.772 0.291451)" fill="#333333"/>
<rect x="245.07" y="212.781" width="6.61078" height="141.66" transform="rotate(-180 245.07 212.781)" fill="#333333"/>
<rect x="122.299" y="283.61" width="6.61078" height="141.66" transform="rotate(-120 122.299 283.61)" fill="#333333"/>
<rect x="124.187" y="261.889" width="6.61078" height="117.105" transform="rotate(-120 124.187 261.889)" fill="#333333"/>
<rect x="118.993" y="276.055" width="6.61078" height="117.105" fill="#333333"/>
<rect width="6.61078" height="141.66" transform="matrix(1 0 0 -1 0 212.781)" fill="#333333"/>
<rect width="6.61078" height="117.105" transform="matrix(1 0 0 -1 17.9434 200.504)" fill="#333333"/>
<rect width="6.61078" height="141.66" transform="matrix(0.5 -0.866025 -0.866025 -0.5 122.772 283.611)" fill="#333333"/>
<rect width="6.61078" height="141.66" transform="matrix(-1 0 0 1 245.544 71.1213)" fill="#333333"/>
<rect width="6.61078" height="141.66" transform="matrix(-0.5 0.866025 0.866025 0.5 122.772 0.29126)" fill="#333333"/>
<rect width="6.61078" height="117.105" transform="matrix(0.5 -0.866025 -0.866025 -0.5 224.188 87.2346)" fill="#333333"/>
<path d="M479.593 70.9625L361.481 4.7625L244.798 73.82V210.03L361.958 278.135L479.593 210.983V70.9625Z" fill="#FFFEE6"/>
<rect x="238.934" y="71.1211" width="6.61078" height="141.66" fill="#333333"/>
<rect x="361.704" y="0.291405" width="6.61078" height="141.66" transform="rotate(60 361.704 0.291405)" fill="#333333"/>
<rect x="484.006" y="212.777" width="6.61078" height="141.66" transform="rotate(-180 484.006 212.777)" fill="#333333"/>
<rect x="361.234" y="283.607" width="6.61078" height="141.66" transform="rotate(-120 361.234 283.607)" fill="#333333"/>
<rect x="363.123" y="261.886" width="6.61078" height="117.105" transform="rotate(-120 363.123 261.886)" fill="#333333"/>
<rect x="357.929" y="276.042" width="6.61078" height="117.105" fill="#333333"/>
<rect width="6.61078" height="141.66" transform="matrix(1 0 0 -1 238.934 212.781)" fill="#333333"/>
<rect width="6.61078" height="117.105" transform="matrix(1 0 0 -1 256.876 200.504)" fill="#333333"/>
<rect width="6.61078" height="141.66" transform="matrix(0.5 -0.866025 -0.866025 -0.5 361.703 283.611)" fill="#333333"/>
<rect width="6.61078" height="141.66" transform="matrix(-1 0 0 1 484.477 71.1211)" fill="#333333"/>
<rect width="6.61078" height="141.66" transform="matrix(-0.5 0.866025 0.866025 0.5 361.706 0.291016)" fill="#333333"/>
<rect width="6.61078" height="117.105" transform="matrix(0.5 -0.866025 -0.866025 -0.5 463.121 87.2344)" fill="#333333"/>
<path d="M717.722 70.9626L599.61 4.7627L482.927 73.8202V210.03L600.086 278.135L717.722 210.983V70.9626Z" fill="#FFFEE6"/>
<rect x="477.865" y="71.1213" width="6.61078" height="141.66" fill="#333333"/>
<rect x="600.637" y="0.291649" width="6.61078" height="141.66" transform="rotate(60 600.637 0.291649)" fill="#333333"/>
<rect x="722.935" y="212.781" width="6.61078" height="141.66" transform="rotate(-180 722.935 212.781)" fill="#333333"/>
<rect x="600.165" y="283.61" width="6.61078" height="141.66" transform="rotate(-120 600.165 283.61)" fill="#333333"/>
<rect x="602.053" y="261.89" width="6.61078" height="117.105" transform="rotate(-120 602.053 261.89)" fill="#333333"/>
<rect x="596.858" y="276.055" width="6.61078" height="117.105" fill="#333333"/>
<rect width="6.61078" height="141.66" transform="matrix(1 0 0 -1 477.865 212.781)" fill="#333333"/>
<rect width="6.61078" height="117.105" transform="matrix(1 0 0 -1 495.809 200.504)" fill="#333333"/>
<rect width="6.61078" height="141.66" transform="matrix(0.5 -0.866025 -0.866025 -0.5 600.637 283.611)" fill="#333333"/>
<rect width="6.61078" height="141.66" transform="matrix(-1 0 0 1 723.407 71.1216)" fill="#333333"/>
<rect width="6.61078" height="141.66" transform="matrix(-0.5 0.866025 0.866025 0.5 600.637 0.291504)" fill="#333333"/>
<rect width="6.61078" height="117.105" transform="matrix(0.5 -0.866025 -0.866025 -0.5 702.053 87.2349)" fill="#333333"/>
<path d="M956.803 70.9626L838.691 4.7627L722.008 73.8202V210.03L839.167 278.135L956.803 210.983V70.9626Z" fill="#FFFEE6"/>
<rect x="716.796" y="71.1207" width="6.61078" height="141.66" fill="#333333"/>
<rect x="839.568" y="0.291016" width="6.61078" height="141.66" transform="rotate(60 839.568 0.291016)" fill="#333333"/>
<rect x="961.869" y="212.781" width="6.61078" height="141.66" transform="rotate(-180 961.869 212.781)" fill="#333333"/>
<rect x="839.098" y="283.61" width="6.61078" height="141.66" transform="rotate(-120 839.098 283.61)" fill="#333333"/>
<rect x="840.986" y="261.889" width="6.61078" height="117.105" transform="rotate(-120 840.986 261.889)" fill="#333333"/>
<rect x="835.792" y="276.055" width="6.61078" height="117.105" fill="#333333"/>
<rect width="6.61078" height="141.66" transform="matrix(1 0 0 -1 716.796 212.781)" fill="#333333"/>
<rect width="6.61078" height="117.105" transform="matrix(1 0 0 -1 734.739 200.503)" fill="#333333"/>
<rect width="6.61078" height="141.66" transform="matrix(0.5 -0.866025 -0.866025 -0.5 839.568 283.61)" fill="#333333"/>
<rect width="6.61078" height="141.66" transform="matrix(-1 0 0 1 962.34 71.1211)" fill="#333333"/>
<rect width="6.61078" height="141.66" transform="matrix(-0.5 0.866025 0.866025 0.5 839.567 0.291016)" fill="#333333"/>
<rect width="6.61078" height="117.105" transform="matrix(0.5 -0.866025 -0.866025 -0.5 940.984 87.2344)" fill="#333333"/>
<path d="M1193.98 70.9624L1075.87 4.76241L959.187 73.8199V210.03L1076.35 278.135L1193.98 210.982V70.9624Z" fill="#FFFEE6"/>
<rect x="955.731" y="71.1211" width="6.61078" height="141.66" fill="#333333"/>
<rect x="1078.5" y="0.291443" width="6.61078" height="141.66" transform="rotate(60 1078.5 0.291443)" fill="#333333"/>
<rect x="1200.8" y="212.781" width="6.61078" height="141.66" transform="rotate(-180 1200.8 212.781)" fill="#333333"/>
<rect x="1078.03" y="283.61" width="6.61078" height="141.66" transform="rotate(-120 1078.03 283.61)" fill="#333333"/>
<rect x="1079.92" y="261.889" width="6.61078" height="117.105" transform="rotate(-120 1079.92 261.889)" fill="#333333"/>
<rect x="1074.72" y="276.055" width="6.61078" height="117.105" fill="#333333"/>
<rect width="6.61078" height="141.66" transform="matrix(1 0 0 -1 955.731 212.781)" fill="#333333"/>
<rect width="6.61078" height="117.105" transform="matrix(1 0 0 -1 973.675 200.504)" fill="#333333"/>
<rect width="6.61078" height="141.66" transform="matrix(0.5 -0.866025 -0.866025 -0.5 1078.5 283.611)" fill="#333333"/>
<rect width="6.61078" height="141.66" transform="matrix(-1 0 0 1 1201.28 71.1208)" fill="#333333"/>
<rect width="6.61078" height="141.66" transform="matrix(-0.5 0.866025 0.866025 0.5 1078.5 0.29126)" fill="#333333"/>
<rect width="6.61078" height="117.105" transform="matrix(0.5 -0.866025 -0.866025 -0.5 1179.92 87.2346)" fill="#333333"/>
<path d="M1435.71 70.6711L1317.6 4.47119L1200.92 73.5287V209.739L1318.08 277.844L1435.71 210.691V70.6711Z" fill="#FFFEE6"/>
<rect x="1194.46" y="70.8296" width="6.61078" height="141.66" fill="#333333"/>
<rect x="1317.23" width="6.61078" height="141.66" transform="rotate(60 1317.23 0)" fill="#333333"/>
<rect x="1439.53" y="212.49" width="6.61078" height="141.66" transform="rotate(-180 1439.53 212.49)" fill="#333333"/>
<rect x="1316.76" y="283.32" width="6.61078" height="141.66" transform="rotate(-120 1316.76 283.32)" fill="#333333"/>
<rect x="1318.65" y="261.598" width="6.61078" height="117.105" transform="rotate(-120 1318.65 261.598)" fill="#333333"/>
<rect x="1313.45" y="275.764" width="6.61078" height="117.105" fill="#333333"/>
<rect width="6.61078" height="141.66" transform="matrix(1 0 0 -1 1194.46 212.49)" fill="#333333"/>
<rect width="6.61078" height="117.105" transform="matrix(1 0 0 -1 1212.4 200.212)" fill="#333333"/>
<rect width="6.61078" height="141.66" transform="matrix(0.5 -0.866025 -0.866025 -0.5 1317.23 283.32)" fill="#333333"/>
<rect width="6.61078" height="141.66" transform="matrix(-1 0 0 1 1440 70.8296)" fill="#333333"/>
<rect width="6.61078" height="141.66" transform="matrix(-0.5 0.866025 0.866025 0.5 1317.23 0)" fill="#333333"/>
<rect width="6.61078" height="117.105" transform="matrix(0.5 -0.866025 -0.866025 -0.5 1418.64 86.9438)" fill="#333333"/>
</svg>
